<svg width="268" height="56" viewBox="0 0 268 56" fill="none" xmlns="http://www.w3.org/2000/svg">
<rect x="1.05103" y="1.38062" width="265.368" height="52.6617" rx="9" fill="black" stroke="black" stroke-width="2"/>
<path d="M52.8854 24.4321C54.5654 24.6521 55.9454 25.3021 57.0254 26.3821C58.1254 27.4421 58.6754 28.8521 58.6754 30.6121C58.6754 32.6121 57.9854 34.1921 56.6054 35.3521C55.2454 36.4921 53.5854 37.0621 51.6254 37.0621C50.0654 37.0621 48.6754 36.7021 47.4554 35.9821C46.2354 35.2621 45.3754 34.2321 44.8754 32.8921L46.6154 31.8721C46.9554 32.9121 47.5654 33.7021 48.4454 34.2421C49.3254 34.7621 50.3854 35.0221 51.6254 35.0221C53.0654 35.0221 54.2454 34.6421 55.1654 33.8821C56.1054 33.1021 56.5754 32.0121 56.5754 30.6121C56.5754 29.2121 56.1054 28.1321 55.1654 27.3721C54.2454 26.5921 53.0654 26.2021 51.6254 26.2021V26.1721L51.5954 26.2021H51.0254L50.1254 24.8221L55.3454 17.6821H45.4754V15.7021L57.7754 15.7021V17.6821L52.8854 24.4321ZM70.3837 15.7021C73.2437 15.7021 75.6037 16.7221 77.4636 18.7621C79.3436 20.7821 80.2836 23.2621 80.2836 26.2021C80.2836 29.1421 79.3436 31.6321 77.4636 33.6721C75.6037 35.6921 73.2437 36.7021 70.3837 36.7021H62.2837V15.7021H70.3837ZM70.3837 34.7221C72.6837 34.7221 74.5637 33.9021 76.0237 32.2621C77.5037 30.6221 78.2437 28.6021 78.2437 26.2021C78.2437 23.8021 77.5037 21.7821 76.0237 20.1421C74.5637 18.5021 72.6837 17.6821 70.3837 17.6821H64.3837V34.7221H70.3837ZM111.445 26.7121V27.7921C111.445 30.3921 110.515 32.5921 108.655 34.3921C106.795 36.1721 104.305 37.0621 101.185 37.0621C98.0054 37.0621 95.3754 36.0121 93.2954 33.9121C91.2154 31.8121 90.1754 29.2421 90.1754 26.2021C90.1754 23.1621 91.2154 20.5921 93.2954 18.4921C95.3754 16.3921 98.0054 15.3421 101.185 15.3421C103.125 15.3421 104.905 15.8121 106.525 16.7521C108.145 17.6921 109.395 18.9421 110.275 20.5021L108.415 21.5821C107.755 20.3021 106.775 19.2821 105.475 18.5221C104.175 17.7621 102.745 17.3821 101.185 17.3821C98.5654 17.3821 96.4254 18.2321 94.7654 19.9321C93.1054 21.6321 92.2754 23.7221 92.2754 26.2021C92.2754 28.6821 93.1054 30.7721 94.7654 32.4721C96.4254 34.1721 98.5654 35.0221 101.185 35.0221C103.545 35.0221 105.435 34.4321 106.855 33.2521C108.275 32.0521 109.085 30.5321 109.285 28.6921H100.945V26.7121H111.445ZM127.947 36.7021L123.027 28.3021H117.147V36.7021H115.047V15.7021L123.447 15.7021C125.187 15.7021 126.667 16.3221 127.887 17.5621C129.127 18.7821 129.747 20.2621 129.747 22.0021C129.747 23.4221 129.317 24.6921 128.457 25.8121C127.617 26.9121 126.537 27.6521 125.217 28.0321L130.347 36.7021H127.947ZM117.147 17.6821V26.3221H123.447C124.607 26.3221 125.597 25.9021 126.417 25.0621C127.237 24.2021 127.647 23.1821 127.647 22.0021C127.647 20.8021 127.237 19.7821 126.417 18.9421C125.597 18.1021 124.607 17.6821 123.447 17.6821L117.147 17.6821ZM147.338 36.7021L145.388 31.5421L135.428 31.5421L133.478 36.7021H131.258L139.328 15.7021H141.488L149.558 36.7021H147.338ZM136.178 29.5621H144.638L140.408 18.3121L136.178 29.5621ZM159.754 15.7021C161.634 15.7021 163.204 16.3321 164.464 17.5921C165.724 18.8521 166.354 20.4221 166.354 22.3021C166.354 24.1821 165.724 25.7521 164.464 27.0121C163.204 28.2721 161.634 28.9021 159.754 28.9021H154.354V36.7021H152.254V15.7021L159.754 15.7021ZM159.754 26.9221C161.054 26.9221 162.124 26.4921 162.964 25.6321C163.824 24.7521 164.254 23.6421 164.254 22.3021C164.254 20.9621 163.824 19.8621 162.964 19.0021C162.124 18.1221 161.054 17.6821 159.754 17.6821H154.354V26.9221H159.754ZM183.45 15.7021H185.55V36.7021H183.45V26.8921H172.05V36.7021H169.95V15.7021H172.05V24.9121H183.45V15.7021ZM190.34 15.7021H192.44V36.7021H190.34V15.7021ZM207.064 37.0621C203.884 37.0621 201.254 36.0121 199.174 33.9121C197.094 31.8121 196.054 29.2421 196.054 26.2021C196.054 23.1621 197.094 20.5921 199.174 18.4921C201.254 16.3921 203.884 15.3421 207.064 15.3421C209.004 15.3421 210.784 15.8121 212.404 16.7521C214.024 17.6721 215.274 18.9221 216.154 20.5021L214.294 21.5821C213.634 20.3021 212.654 19.2821 211.354 18.5221C210.054 17.7621 208.624 17.3821 207.064 17.3821C204.444 17.3821 202.304 18.2321 200.644 19.9321C198.984 21.6321 198.154 23.7221 198.154 26.2021C198.154 28.6821 198.984 30.7721 200.644 32.4721C202.304 34.1721 204.444 35.0221 207.064 35.0221C208.624 35.0221 210.054 34.6421 211.354 33.8821C212.654 33.1221 213.634 32.1021 214.294 30.8221L216.154 31.8721C215.294 33.4521 214.044 34.7121 212.404 35.6521C210.784 36.5921 209.004 37.0621 207.064 37.0621ZM226.208 37.0621C224.288 37.0621 222.638 36.6121 221.258 35.7121C219.898 34.7921 218.948 33.5321 218.408 31.9321L220.208 30.8821C220.588 32.1821 221.288 33.2021 222.308 33.9421C223.328 34.6621 224.638 35.0221 226.238 35.0221C227.798 35.0221 229.008 34.6821 229.868 34.0021C230.748 33.3021 231.188 32.3821 231.188 31.2421C231.188 30.1421 230.788 29.3121 229.988 28.7521C229.188 28.1921 227.868 27.6121 226.028 27.0121C223.848 26.2921 222.408 25.7121 221.708 25.2721C220.108 24.3121 219.308 22.9221 219.308 21.1021C219.308 19.3221 219.928 17.9221 221.168 16.9021C222.408 15.8621 223.938 15.3421 225.758 15.3421C227.398 15.3421 228.818 15.7721 230.018 16.6321C231.218 17.4721 232.108 18.5521 232.688 19.8721L230.918 20.8621C229.958 18.5421 228.238 17.3821 225.758 17.3821C224.458 17.3821 223.408 17.7021 222.608 18.3421C221.808 18.9821 221.408 19.8721 221.408 21.0121C221.408 22.0521 221.768 22.8321 222.488 23.3521C223.208 23.8721 224.398 24.4021 226.058 24.9421C226.818 25.2021 227.358 25.3921 227.678 25.5121C228.018 25.6121 228.498 25.7921 229.118 26.0521C229.758 26.2921 230.228 26.5121 230.528 26.7121C230.828 26.8921 231.188 27.1521 231.608 27.4921C232.048 27.8121 232.358 28.1421 232.538 28.4821C232.738 28.8021 232.908 29.2021 233.048 29.6821C233.208 30.1421 233.288 30.6421 233.288 31.1821C233.288 32.9621 232.638 34.3921 231.338 35.4721C230.038 36.5321 228.328 37.0621 226.208 37.0621Z" fill="#9ECC00"/>
</svg>
