<svg width="238" height="55" viewBox="0 0 238 55" fill="none" xmlns="http://www.w3.org/2000/svg">
<path d="M54.4448 37.107L52.4992 31.9454L42.5392 31.9369L40.5848 37.0953L38.3648 37.0934L46.4526 16.1002L48.6126 16.1021L56.6648 37.1089L54.4448 37.107ZM43.2909 29.9576L51.7509 29.9647L47.5304 18.7111L43.2909 29.9576ZM72.8791 16.1226L74.9791 16.1244L74.9613 37.1244L73.1613 37.1229L61.4758 20.013L61.4613 37.113L59.3613 37.1112L59.3791 16.1112L61.1791 16.1127L72.8646 33.2226L72.8791 16.1226ZM79.7697 16.1285L81.8697 16.1302L81.8519 37.1302L79.7519 37.1285L79.7697 16.1285ZM105.884 16.1506L105.866 37.1506L103.766 37.1488L103.781 19.3288L96.4206 31.6226L96.1206 31.6223L88.7811 19.3161L88.766 37.1361L86.666 37.1343L86.6838 16.1343L89.2938 16.1365L96.2738 27.8425L103.274 16.1484L105.884 16.1506ZM124.64 37.1665L122.694 32.0048L112.734 31.9964L110.78 37.1547L108.56 37.1529L116.648 16.1597L118.808 16.1615L126.86 37.1684L124.64 37.1665ZM113.486 30.017L121.946 30.0242L117.726 18.7706L113.486 30.017ZM141.28 16.1806L141.279 18.1606L134.829 18.1551L134.812 37.1751L132.712 37.1733L132.729 18.1533L126.279 18.1479L126.28 16.1679L141.28 16.1806ZM144.281 16.1831L146.381 16.1849L146.364 37.1849L144.264 37.1831L144.281 16.1831ZM168.55 34.4137C166.448 36.5119 163.877 37.5597 160.837 37.5572C157.797 37.5546 155.228 36.5024 153.13 34.4006C151.032 32.2789 149.984 29.708 149.987 26.688C149.989 23.668 151.041 21.1089 153.143 19.0106C155.245 16.8924 157.816 15.8346 160.856 15.8372C163.896 15.8398 166.465 16.9019 168.563 19.0237C170.661 21.1255 171.709 23.6864 171.707 26.7064C171.704 29.7264 170.652 32.2955 168.55 34.4137ZM154.601 32.9619C156.28 34.6633 158.359 35.5151 160.839 35.5172C163.319 35.5193 165.4 34.671 167.081 32.9725C168.763 31.2539 169.604 29.1646 169.607 26.7046C169.609 24.2446 168.77 22.1639 167.092 20.4625C165.413 18.741 163.334 17.8793 160.854 17.8772C158.374 17.8751 156.293 18.7333 154.612 20.4519C152.93 22.1505 152.089 24.2298 152.087 26.6898C152.084 29.1498 152.923 31.2405 154.601 32.9619ZM188.807 16.2209L190.907 16.2226L190.889 37.2226L189.089 37.2211L177.403 20.1112L177.389 37.2112L175.289 37.2094L175.307 16.2094L177.107 16.211L188.792 33.3209L188.807 16.2209ZM201.986 37.592C200.066 37.5904 198.417 37.139 197.037 36.2378C195.678 35.3167 194.729 34.0559 194.191 32.4554L195.992 31.407C196.37 32.7073 197.07 33.7279 198.089 34.4687C199.108 35.1896 200.418 35.5507 202.018 35.5521C203.578 35.5534 204.788 35.2144 205.649 34.5351C206.529 33.8359 206.97 32.9163 206.971 31.7763C206.972 30.6763 206.573 29.8459 205.773 29.2853C204.974 28.7246 203.654 28.1435 201.815 27.5419C199.635 26.82 198.196 26.2388 197.496 25.7982C195.897 24.8369 195.098 23.4462 195.1 21.6262C195.101 19.8462 195.723 18.4467 196.963 17.4278C198.204 16.3888 199.735 15.8701 201.555 15.8717C203.195 15.8731 204.614 16.3043 205.814 17.1653C207.013 18.0063 207.902 19.0871 208.481 20.4075L206.71 21.396C205.752 19.0752 204.033 17.9138 201.553 17.9117C200.253 17.9106 199.203 18.2297 198.402 18.869C197.602 19.5083 197.201 20.398 197.2 21.538C197.199 22.578 197.558 23.3583 198.278 23.8789C198.997 24.3995 200.187 24.9305 201.847 25.4719C202.606 25.7326 203.146 25.923 203.466 26.0433C203.806 26.1436 204.286 26.324 204.906 26.5845C205.545 26.8251 206.015 27.0455 206.315 27.2457C206.615 27.426 206.975 27.6863 207.394 28.0266C207.834 28.347 208.144 28.6773 208.324 29.0174C208.523 29.3376 208.693 29.7377 208.833 30.2178C208.992 30.678 209.072 31.178 209.071 31.718C209.07 33.498 208.419 34.9275 207.118 36.0064C205.817 37.0653 204.106 37.5938 201.986 37.592Z" fill="black"/>
<rect x="1.06934" y="1.09399" width="235.148" height="52.6617" rx="9" stroke="black" stroke-width="2"/>
</svg>
