<svg width="238" height="55" viewBox="0 0 238 55" fill="none" xmlns="http://www.w3.org/2000/svg">
<path d="M69.6207 35.6548L67.6751 30.4932L57.7151 30.4847L55.7607 35.6431L53.5407 35.6412L61.6285 14.6481L63.7885 14.6499L71.8407 35.6567L69.6207 35.6548ZM58.4668 28.5054L66.9268 28.5126L62.7063 17.259L58.4668 28.5054ZM87.4372 35.6699L82.5243 27.2658L76.6443 27.2608L76.6372 35.6608L74.5372 35.659L74.555 14.659L82.955 14.6661C84.695 14.6676 86.1745 15.2889 87.3934 16.5299C88.6324 17.7509 89.2511 19.2315 89.2496 20.9715C89.2484 22.3915 88.8174 23.6611 87.9564 24.7804C87.1155 25.8797 86.0349 26.6187 84.7145 26.9976L89.8372 35.672L87.4372 35.6699ZM76.6533 16.6408L76.646 25.2808L82.946 25.2861C84.106 25.2871 85.0963 24.8679 85.9171 24.0286C86.7378 23.1693 87.1486 22.1497 87.1496 20.9697C87.1507 19.7697 86.7415 18.7493 85.9222 17.9086C85.103 17.068 84.1133 16.6471 82.9533 16.6461L76.6533 16.6408ZM91.9466 27.3638L91.9482 25.4438L102.748 25.4529L102.747 27.3729L91.9466 27.3638ZM126.743 14.7032L126.725 35.7032L124.625 35.7015L124.641 17.8815L117.28 30.1752L116.98 30.175L109.641 17.8687L109.625 35.6887L107.525 35.687L107.543 14.687L110.153 14.6892L117.133 26.3951L124.133 14.701L126.743 14.7032ZM145.5 35.7191L143.554 30.5575L133.594 30.5491L131.64 35.7074L129.42 35.7055L137.507 14.7124L139.667 14.7142L147.72 35.721L145.5 35.7191ZM134.346 28.5697L142.806 28.5769L138.585 17.3233L134.346 28.5697ZM156.43 36.0884C154.51 36.0868 152.86 35.6354 151.481 34.7342C150.122 33.8131 149.173 32.5523 148.634 30.9518L150.435 29.9033C150.814 31.2036 151.513 32.2242 152.532 32.9651C153.552 33.686 154.862 34.0471 156.462 34.0484C158.022 34.0498 159.232 33.7108 160.092 33.0315C160.973 32.3323 161.414 31.4126 161.415 30.2726C161.416 29.1726 161.016 28.3423 160.217 27.7816C159.417 27.2209 158.098 26.6398 156.258 26.0383C154.079 25.3164 152.639 24.7352 151.94 24.2946C150.341 23.3332 149.542 21.9426 149.543 20.1226C149.545 18.3426 150.166 16.9431 151.407 15.9241C152.648 14.8852 154.178 14.3665 155.998 14.368C157.638 14.3694 159.058 14.8006 160.257 15.6616C161.456 16.5027 162.346 17.5834 162.924 18.9039L161.154 19.8924C160.196 17.5716 158.477 16.4101 155.997 16.408C154.697 16.4069 153.646 16.726 152.846 17.3654C152.045 18.0047 151.644 18.8943 151.643 20.0343C151.643 21.0743 152.002 21.8546 152.721 22.3753C153.441 22.8959 154.631 23.4269 156.29 23.9683C157.05 24.2289 157.59 24.4194 157.91 24.5397C158.25 24.6399 158.729 24.8204 159.349 25.0809C159.989 25.3214 160.459 25.5418 160.759 25.7421C161.058 25.9223 161.418 26.1826 161.838 26.523C162.278 26.8434 162.587 27.1736 162.767 27.5138C162.967 27.8339 163.136 28.2341 163.276 28.7142C163.436 29.1743 163.515 29.6744 163.515 30.2144C163.513 31.9944 162.862 33.4239 161.561 34.5028C160.26 35.5617 158.55 36.0902 156.43 36.0884ZM181.669 35.7498L178.909 35.7475L169.077 25.5691L169.069 35.7391L166.969 35.7373L166.987 14.7373L169.087 14.7391L169.078 24.3391L178.627 14.7472L181.387 14.7495L171.298 24.941L181.669 35.7498ZM189.77 36.1167C187.85 36.115 186.2 35.6636 184.821 34.7625C183.462 33.8413 182.513 32.5805 181.974 30.9801L183.775 29.9316C184.154 31.2319 184.853 32.2525 185.872 32.9934C186.892 33.7142 188.201 34.0753 189.801 34.0767C191.361 34.078 192.572 33.739 193.432 33.0598C194.313 32.3605 194.754 31.4409 194.755 30.3009C194.756 29.2009 194.356 28.3705 193.557 27.8099C192.757 27.2492 191.438 26.6681 189.598 26.0665C187.419 25.3447 185.979 24.7634 185.28 24.3229C183.68 23.3615 182.882 21.9708 182.883 20.1508C182.885 18.3708 183.506 16.9713 184.747 15.9524C185.988 14.9134 187.518 14.3947 189.338 14.3963C190.978 14.3977 192.398 14.8289 193.597 15.6899C194.796 16.5309 195.685 17.6117 196.264 18.9322L194.493 19.9207C193.535 17.5998 191.816 16.4384 189.336 16.4363C188.036 16.4352 186.986 16.7543 186.186 17.3936C185.385 18.0329 184.984 18.9226 184.983 20.0626C184.982 21.1026 185.342 21.8829 186.061 22.4035C186.781 22.9241 187.97 23.4551 189.63 23.9965C190.39 24.2572 190.93 24.4476 191.249 24.5679C191.589 24.6682 192.069 24.8486 192.689 25.1091C193.329 25.3497 193.799 25.5701 194.098 25.7703C194.398 25.9506 194.758 26.2109 195.178 26.5512C195.617 26.8716 195.927 27.2019 196.107 27.542C196.307 27.8622 196.476 28.2623 196.616 28.7425C196.776 29.2026 196.855 29.7027 196.855 30.2427C196.853 32.0227 196.202 33.4521 194.901 34.531C193.6 35.5899 191.89 36.1185 189.77 36.1167Z" fill="black"/>
<rect x="1.5459" y="1.17432" width="235.148" height="52.6617" rx="9" stroke="black" stroke-width="2"/>
</svg>
