<svg width="303" height="56" viewBox="0 0 303 56" fill="none" xmlns="http://www.w3.org/2000/svg">
<path d="M63.2418 36.6034C60.0618 36.6034 57.4318 35.5534 55.3518 33.4534C53.2718 31.3534 52.2318 28.7834 52.2318 25.7434C52.2318 22.7034 53.2718 20.1334 55.3518 18.0334C57.4318 15.9334 60.0618 14.8834 63.2418 14.8834C65.1818 14.8834 66.9618 15.3534 68.5818 16.2934C70.2018 17.2134 71.4518 18.4634 72.3318 20.0434L70.4718 21.1234C69.8118 19.8434 68.8318 18.8234 67.5318 18.0634C66.2318 17.3034 64.8018 16.9234 63.2418 16.9234C60.6218 16.9234 58.4818 17.7734 56.8218 19.4734C55.1618 21.1734 54.3318 23.2634 54.3318 25.7434C54.3318 28.2234 55.1618 30.3134 56.8218 32.0134C58.4818 33.7134 60.6218 34.5634 63.2418 34.5634C64.8018 34.5634 66.2318 34.1834 67.5318 33.4234C68.8318 32.6634 69.8118 31.6434 70.4718 30.3634L72.3318 31.4134C71.4718 32.9934 70.2218 34.2534 68.5818 35.1934C66.9618 36.1334 65.1818 36.6034 63.2418 36.6034ZM93.1554 33.4534C91.0554 35.5534 88.4854 36.6034 85.4454 36.6034C82.4054 36.6034 79.8354 35.5534 77.7354 33.4534C75.6354 31.3334 74.5854 28.7634 74.5854 25.7434C74.5854 22.7234 75.6354 20.1634 77.7354 18.0634C79.8354 15.9434 82.4054 14.8834 85.4454 14.8834C88.4854 14.8834 91.0554 15.9434 93.1554 18.0634C95.2554 20.1634 96.3054 22.7234 96.3054 25.7434C96.3054 28.7634 95.2554 31.3334 93.1554 33.4534ZM79.2054 32.0134C80.8854 33.7134 82.9654 34.5634 85.4454 34.5634C87.9254 34.5634 90.0054 33.7134 91.6854 32.0134C93.3654 30.2934 94.2054 28.2034 94.2054 25.7434C94.2054 23.2834 93.3654 21.2034 91.6854 19.5034C90.0054 17.7834 87.9254 16.9234 85.4454 16.9234C82.9654 16.9234 80.8854 17.7834 79.2054 19.5034C77.5254 21.2034 76.6854 23.2834 76.6854 25.7434C76.6854 28.2034 77.5254 30.2934 79.2054 32.0134ZM107.397 15.2434C109.277 15.2434 110.847 15.8734 112.107 17.1334C113.367 18.3934 113.997 19.9634 113.997 21.8434C113.997 23.7234 113.367 25.2934 112.107 26.5534C110.847 27.8134 109.277 28.4434 107.397 28.4434H101.997V36.2434H99.8967V15.2434H107.397ZM107.397 26.4634C108.697 26.4634 109.767 26.0334 110.607 25.1734C111.467 24.2934 111.897 23.1834 111.897 21.8434C111.897 20.5034 111.467 19.4034 110.607 18.5434C109.767 17.6634 108.697 17.2234 107.397 17.2234H101.997V26.4634H107.397ZM132.156 15.2434L124.566 27.6334V36.2434H122.466V27.5734L114.906 15.2434H117.276L123.546 25.5334L129.786 15.2434H132.156ZM139.438 36.2434L133.348 15.2434H135.568L140.758 33.3934L146.218 15.2434H148.678L154.138 33.3934L159.328 15.2434H161.548L155.458 36.2434H152.938L147.448 18.0034L141.958 36.2434H139.438ZM177.748 36.2434L172.828 27.8434H166.948V36.2434H164.848V15.2434H173.248C174.988 15.2434 176.468 15.8634 177.688 17.1034C178.928 18.3234 179.548 19.8034 179.548 21.5434C179.548 22.9634 179.118 24.2334 178.258 25.3534C177.418 26.4534 176.338 27.1934 175.018 27.5734L180.148 36.2434H177.748ZM166.948 17.2234V25.8634H173.248C174.408 25.8634 175.398 25.4434 176.218 24.6034C177.038 23.7434 177.448 22.7234 177.448 21.5434C177.448 20.3434 177.038 19.3234 176.218 18.4834C175.398 17.6434 174.408 17.2234 173.248 17.2234H166.948ZM183.158 15.2434H185.258V36.2434H183.158V15.2434ZM203.272 15.2434V17.2234H196.822V36.2434H194.722V17.2234H188.272V15.2434H203.272ZM206.274 15.2434H208.374V36.2434H206.274V15.2434ZM226.688 15.2434H228.788V36.2434H226.988L215.288 19.1434V36.2434H213.188V15.2434H214.988L226.688 32.3434V15.2434ZM253.648 26.2534V27.3334C253.648 29.9334 252.718 32.1334 250.858 33.9334C248.998 35.7134 246.508 36.6034 243.388 36.6034C240.208 36.6034 237.578 35.5534 235.498 33.4534C233.418 31.3534 232.378 28.7834 232.378 25.7434C232.378 22.7034 233.418 20.1334 235.498 18.0334C237.578 15.9334 240.208 14.8834 243.388 14.8834C245.328 14.8834 247.108 15.3534 248.728 16.2934C250.348 17.2334 251.598 18.4834 252.478 20.0434L250.618 21.1234C249.958 19.8434 248.978 18.8234 247.678 18.0634C246.378 17.3034 244.948 16.9234 243.388 16.9234C240.768 16.9234 238.628 17.7734 236.968 19.4734C235.308 21.1734 234.478 23.2634 234.478 25.7434C234.478 28.2234 235.308 30.3134 236.968 32.0134C238.628 33.7134 240.768 34.5634 243.388 34.5634C245.748 34.5634 247.638 33.9734 249.058 32.7934C250.478 31.5934 251.288 30.0734 251.488 28.2334H243.148V26.2534H253.648Z" fill="black"/>
<rect x="1.87451" y="1.34546" width="299.76" height="52.6617" rx="9" stroke="black" stroke-width="2"/>
</svg>
