<svg width="123" height="55" viewBox="0 0 123 55" fill="none" xmlns="http://www.w3.org/2000/svg">
<rect x="1.82471" y="1.06836" width="120.063" height="52.6617" rx="9" fill="black" stroke="black" stroke-width="2"/>
<path d="M52.6484 26.8782V27.9582C52.6484 30.5582 51.7184 32.7582 49.8584 34.5582C47.9984 36.3382 45.5084 37.2282 42.3884 37.2282C39.2084 37.2282 36.5784 36.1782 34.4984 34.0782C32.4184 31.9782 31.3784 29.4082 31.3784 26.3682C31.3784 23.3282 32.4184 20.7582 34.4984 18.6582C36.5784 16.5582 39.2084 15.5082 42.3884 15.5082C44.3284 15.5082 46.1084 15.9782 47.7284 16.9182C49.3484 17.8582 50.5984 19.1082 51.4784 20.6682L49.6184 21.7482C48.9584 20.4682 47.9784 19.4482 46.6784 18.6882C45.3784 17.9282 43.9484 17.5482 42.3884 17.5482C39.7684 17.5482 37.6284 18.3982 35.9684 20.0982C34.3084 21.7982 33.4784 23.8882 33.4784 26.3682C33.4784 28.8482 34.3084 30.9382 35.9684 32.6382C37.6284 34.3382 39.7684 35.1882 42.3884 35.1882C44.7484 35.1882 46.6384 34.5982 48.0584 33.4182C49.4784 32.2182 50.2884 30.6982 50.4884 28.8582H42.1484V26.8782H52.6484ZM56.2503 15.8682H58.3503V36.8682H56.2503V15.8682ZM75.0143 17.8482H65.2643V25.5882H74.5643V27.5682H65.2643V36.8682H63.1643V15.8682H75.0143V17.8482ZM84.9108 37.2282C82.9908 37.2282 81.3408 36.7782 79.9608 35.8782C78.6008 34.9582 77.6508 33.6982 77.1108 32.0982L78.9108 31.0482C79.2908 32.3482 79.9908 33.3682 81.0108 34.1082C82.0308 34.8282 83.3408 35.1882 84.9408 35.1882C86.5008 35.1882 87.7108 34.8482 88.5708 34.1682C89.4508 33.4682 89.8908 32.5482 89.8908 31.4082C89.8908 30.3082 89.4908 29.4782 88.6908 28.9182C87.8908 28.3582 86.5708 27.7782 84.7308 27.1782C82.5508 26.4582 81.1108 25.8782 80.4108 25.4382C78.8108 24.4782 78.0108 23.0882 78.0108 21.2682C78.0108 19.4882 78.6308 18.0882 79.8708 17.0682C81.1108 16.0282 82.6408 15.5082 84.4608 15.5082C86.1008 15.5082 87.5208 15.9382 88.7208 16.7982C89.9208 17.6382 90.8108 18.7182 91.3908 20.0382L89.6208 21.0282C88.6608 18.7082 86.9408 17.5482 84.4608 17.5482C83.1608 17.5482 82.1108 17.8682 81.3108 18.5082C80.5108 19.1482 80.1108 20.0382 80.1108 21.1782C80.1108 22.2182 80.4708 22.9982 81.1908 23.5182C81.9108 24.0382 83.1008 24.5682 84.7608 25.1082C85.5208 25.3682 86.0608 25.5582 86.3808 25.6782C86.7208 25.7782 87.2008 25.9582 87.8208 26.2182C88.4608 26.4582 88.9308 26.6782 89.2308 26.8782C89.5308 27.0582 89.8908 27.3182 90.3108 27.6582C90.7508 27.9782 91.0608 28.3082 91.2408 28.6482C91.4408 28.9682 91.6108 29.3682 91.7508 29.8482C91.9108 30.3082 91.9908 30.8082 91.9908 31.3482C91.9908 33.1282 91.3408 34.5582 90.0408 35.6382C88.7408 36.6982 87.0308 37.2282 84.9108 37.2282Z" fill="#9ECC00"/>
</svg>
