<svg width="326" height="56" viewBox="0 0 326 56" fill="none" xmlns="http://www.w3.org/2000/svg">
<path d="M62.7473 16.1348H64.8473V37.1348H62.7473V16.1348ZM71.7613 35.1548H81.3613V37.1348H69.6613V16.1348H71.7613V35.1548ZM86.4684 35.1548H96.0684V37.1348H84.3684V16.1348H86.4684V35.1548ZM111.922 35.4548C110.482 36.8148 108.602 37.4948 106.282 37.4948C103.962 37.4948 102.082 36.8148 100.642 35.4548C99.2024 34.0948 98.4824 32.2748 98.4824 29.9948V16.1348H100.582V29.9948C100.582 31.6748 101.082 33.0048 102.082 33.9848C103.082 34.9648 104.482 35.4548 106.282 35.4548C108.082 35.4548 109.482 34.9648 110.482 33.9848C111.482 33.0048 111.982 31.6748 111.982 29.9948V16.1348H114.082V29.9948C114.082 32.2748 113.362 34.0948 111.922 35.4548ZM125.187 37.4948C123.267 37.4948 121.617 37.0448 120.237 36.1448C118.877 35.2248 117.927 33.9648 117.387 32.3648L119.187 31.3148C119.567 32.6148 120.267 33.6348 121.287 34.3748C122.307 35.0948 123.617 35.4548 125.217 35.4548C126.777 35.4548 127.987 35.1148 128.847 34.4348C129.727 33.7348 130.167 32.8148 130.167 31.6748C130.167 30.5748 129.767 29.7448 128.967 29.1848C128.167 28.6248 126.847 28.0448 125.007 27.4448C122.827 26.7248 121.387 26.1448 120.687 25.7048C119.087 24.7448 118.287 23.3548 118.287 21.5348C118.287 19.7548 118.907 18.3548 120.147 17.3348C121.387 16.2948 122.917 15.7748 124.737 15.7748C126.377 15.7748 127.797 16.2048 128.997 17.0648C130.197 17.9048 131.087 18.9848 131.667 20.3048L129.897 21.2948C128.937 18.9748 127.217 17.8148 124.737 17.8148C123.437 17.8148 122.387 18.1348 121.587 18.7748C120.787 19.4148 120.387 20.3048 120.387 21.4448C120.387 22.4848 120.747 23.2648 121.467 23.7848C122.187 24.3048 123.377 24.8348 125.037 25.3748C125.797 25.6348 126.337 25.8248 126.657 25.9448C126.997 26.0448 127.477 26.2248 128.097 26.4848C128.737 26.7248 129.207 26.9448 129.507 27.1448C129.807 27.3248 130.167 27.5848 130.587 27.9248C131.027 28.2448 131.337 28.5748 131.517 28.9148C131.717 29.2348 131.887 29.6348 132.027 30.1148C132.187 30.5748 132.267 31.0748 132.267 31.6148C132.267 33.3948 131.617 34.8248 130.317 35.9048C129.017 36.9648 127.307 37.4948 125.187 37.4948ZM148.311 16.1348V18.1148H141.861V37.1348H139.761V18.1148H133.311V16.1348H148.311ZM164.212 37.1348L159.292 28.7348H153.412V37.1348H151.312V16.1348H159.712C161.452 16.1348 162.932 16.7548 164.152 17.9948C165.392 19.2148 166.012 20.6948 166.012 22.4348C166.012 23.8548 165.582 25.1248 164.722 26.2448C163.882 27.3448 162.802 28.0848 161.482 28.4648L166.612 37.1348H164.212ZM153.412 18.1148V26.7548H159.712C160.872 26.7548 161.862 26.3348 162.682 25.4948C163.502 24.6348 163.912 23.6148 163.912 22.4348C163.912 21.2348 163.502 20.2148 162.682 19.3748C161.862 18.5348 160.872 18.1148 159.712 18.1148H153.412ZM183.602 37.1348L181.652 31.9748H171.692L169.742 37.1348H167.522L175.592 16.1348H177.752L185.822 37.1348H183.602ZM172.442 29.9948H180.902L176.672 18.7448L172.442 29.9948ZM200.225 16.1348V18.1148H193.775V37.1348H191.675V18.1148H185.225V16.1348H200.225ZM203.226 16.1348H205.326V37.1348H203.226V16.1348ZM227.51 34.3448C225.41 36.4448 222.84 37.4948 219.8 37.4948C216.76 37.4948 214.19 36.4448 212.09 34.3448C209.99 32.2248 208.94 29.6548 208.94 26.6348C208.94 23.6148 209.99 21.0548 212.09 18.9548C214.19 16.8348 216.76 15.7748 219.8 15.7748C222.84 15.7748 225.41 16.8348 227.51 18.9548C229.61 21.0548 230.66 23.6148 230.66 26.6348C230.66 29.6548 229.61 32.2248 227.51 34.3448ZM213.56 32.9048C215.24 34.6048 217.32 35.4548 219.8 35.4548C222.28 35.4548 224.36 34.6048 226.04 32.9048C227.72 31.1848 228.56 29.0948 228.56 26.6348C228.56 24.1748 227.72 22.0948 226.04 20.3948C224.36 18.6748 222.28 17.8148 219.8 17.8148C217.32 17.8148 215.24 18.6748 213.56 20.3948C211.88 22.0948 211.04 24.1748 211.04 26.6348C211.04 29.0948 211.88 31.1848 213.56 32.9048ZM247.751 16.1348H249.851V37.1348H248.051L236.351 20.0348V37.1348H234.251V16.1348H236.051L247.751 33.2348V16.1348ZM260.949 37.4948C259.029 37.4948 257.379 37.0448 255.999 36.1448C254.639 35.2248 253.689 33.9648 253.149 32.3648L254.949 31.3148C255.329 32.6148 256.029 33.6348 257.049 34.3748C258.069 35.0948 259.379 35.4548 260.979 35.4548C262.539 35.4548 263.749 35.1148 264.609 34.4348C265.489 33.7348 265.929 32.8148 265.929 31.6748C265.929 30.5748 265.529 29.7448 264.729 29.1848C263.929 28.6248 262.609 28.0448 260.769 27.4448C258.589 26.7248 257.149 26.1448 256.449 25.7048C254.849 24.7448 254.049 23.3548 254.049 21.5348C254.049 19.7548 254.669 18.3548 255.909 17.3348C257.149 16.2948 258.679 15.7748 260.499 15.7748C262.139 15.7748 263.559 16.2048 264.759 17.0648C265.959 17.9048 266.849 18.9848 267.429 20.3048L265.659 21.2948C264.699 18.9748 262.979 17.8148 260.499 17.8148C259.199 17.8148 258.149 18.1348 257.349 18.7748C256.549 19.4148 256.149 20.3048 256.149 21.4448C256.149 22.4848 256.509 23.2648 257.229 23.7848C257.949 24.3048 259.139 24.8348 260.799 25.3748C261.559 25.6348 262.099 25.8248 262.419 25.9448C262.759 26.0448 263.239 26.2248 263.859 26.4848C264.499 26.7248 264.969 26.9448 265.269 27.1448C265.569 27.3248 265.929 27.5848 266.349 27.9248C266.789 28.2448 267.099 28.5748 267.279 28.9148C267.479 29.2348 267.649 29.6348 267.789 30.1148C267.949 30.5748 268.029 31.0748 268.029 31.6148C268.029 33.3948 267.379 34.8248 266.079 35.9048C264.779 36.9648 263.069 37.4948 260.949 37.4948Z" fill="black"/>
<rect x="1.95874" y="1.84082" width="322.455" height="52.6617" rx="9" stroke="black" stroke-width="2"/>
</svg>
