<svg width="296" height="56" viewBox="0 0 296 56" fill="none" xmlns="http://www.w3.org/2000/svg">
<rect x="1.72961" y="1.43018" width="292.44" height="52.6617" rx="9" fill="black" stroke="black" stroke-width="2"/>
<path d="M49.108 15.7726L51.208 15.7909L51.025 36.7901L48.925 36.7718L49.108 15.7726ZM69.5213 15.9504L71.6212 15.9687L71.4383 36.9679L69.6383 36.9523L58.0878 19.751L57.9388 36.8503L55.8388 36.832L56.0218 15.8328L57.8218 15.8485L69.3723 33.0498L69.5213 15.9504ZM88.244 18.0937L78.4944 18.0087L78.4269 25.7484L87.7266 25.8295L87.7093 27.8094L78.4097 27.7283L78.3286 37.028L76.2287 37.0097L76.4117 16.0105L88.2612 16.1137L88.244 18.0937ZM109.061 34.5057C106.943 36.5873 104.364 37.6149 101.324 37.5884C98.2842 37.5619 95.7234 36.4895 93.6418 34.3713C91.5604 32.2331 90.5328 29.6541 90.5591 26.6342C90.5854 23.6143 91.6577 21.0635 93.7759 18.9819C95.8943 16.8803 98.4734 15.8427 101.513 15.8692C104.553 15.8957 107.114 16.9781 109.195 19.1163C111.277 21.2345 112.305 23.8035 112.278 26.8234C112.252 29.8433 111.18 32.4041 109.061 34.5057ZM95.1243 32.9442C96.7894 34.6588 98.8619 35.5269 101.342 35.5485C103.822 35.5701 105.909 34.7382 107.604 33.0529C109.299 31.3476 110.157 29.265 110.178 26.8051C110.2 24.3452 109.378 22.258 107.713 20.5434C106.048 18.8088 103.975 17.9307 101.496 17.9091C99.0156 17.8875 96.9282 18.7294 95.2333 20.4347C93.5386 22.12 92.6805 24.1926 92.659 26.6525C92.6376 29.1124 93.4593 31.2096 95.1243 32.9442ZM135.934 27.5396L135.925 28.6195C135.902 31.2194 134.953 33.4113 133.077 35.195C131.202 36.9587 128.704 37.827 125.584 37.7998C122.405 37.7721 119.784 36.6992 117.722 34.5812C115.661 32.4631 114.643 29.8841 114.67 26.8443C114.696 23.8044 115.758 21.2435 117.857 19.1617C119.955 17.0799 122.594 16.0529 125.774 16.0806C127.714 16.0975 129.489 16.583 131.101 17.5371C132.713 18.4912 133.952 19.752 134.818 21.3196L132.949 22.3834C132.3 21.0977 131.329 20.0692 130.036 19.2979C128.743 18.5266 127.316 18.1341 125.756 18.1205C123.136 18.0977 120.989 18.929 119.314 20.6145C117.639 22.3 116.791 24.3827 116.769 26.8626C116.748 29.3425 117.56 31.4396 119.205 33.154C120.85 34.8684 122.982 35.737 125.602 35.7599C127.962 35.7804 129.857 35.2069 131.287 34.0393C132.718 32.8518 133.541 31.3389 133.757 29.5007L125.417 29.428L125.435 27.4481L135.934 27.5396ZM152.348 37.673L147.502 29.2304L141.622 29.1792L141.549 37.5789L139.449 37.5606L139.632 16.5614L148.032 16.6346C149.772 16.6497 151.246 17.2826 152.455 18.5332C153.685 19.764 154.292 21.2493 154.276 22.9892C154.264 24.4092 153.823 25.6754 152.953 26.7878C152.104 27.8805 151.017 28.611 149.694 28.9795L154.748 37.6939L152.348 37.673ZM141.715 18.5596L141.639 27.1993L147.939 27.2542C149.099 27.2643 150.093 26.8529 150.92 26.0201C151.747 25.1673 152.166 24.1509 152.177 22.9709C152.187 21.771 151.786 20.7474 150.973 19.9003C150.161 19.0532 149.174 18.6246 148.014 18.6145L141.715 18.5596ZM171.738 37.842L169.833 32.6652L159.874 32.5784L157.879 37.7212L155.659 37.7018L163.912 16.773L166.071 16.7918L173.958 37.8613L171.738 37.842ZM160.641 30.605L169.101 30.6787L164.969 19.3923L160.641 30.605ZM184.337 16.9509C186.217 16.9673 187.782 17.611 189.031 18.8819C190.28 20.1528 190.896 21.7283 190.88 23.6082C190.863 25.4881 190.219 27.0526 188.949 28.3016C187.678 29.5505 186.102 30.1668 184.222 30.1504L178.822 30.1034L178.754 37.9031L176.655 37.8848L176.838 16.8856L184.337 16.9509ZM184.24 28.1705C185.539 28.1818 186.613 27.7612 187.461 26.9085C188.328 26.0361 188.768 24.9298 188.78 23.5899C188.791 22.2499 188.371 21.1462 187.518 20.2788C186.686 19.3915 185.62 18.9422 184.32 18.9309L178.92 18.8838L178.84 28.1235L184.24 28.1705ZM208.032 17.1574L210.132 17.1757L209.949 38.1749L207.849 38.1566L207.934 28.347L196.535 28.2476L196.449 38.0573L194.349 38.039L194.532 17.0398L196.632 17.0581L196.552 26.2677L207.951 26.3671L208.032 17.1574ZM214.922 17.2175L217.022 17.2357L216.839 38.235L214.739 38.2167L214.922 17.2175ZM231.459 38.7224C228.279 38.6947 225.659 37.6218 223.597 35.5037C221.535 33.3857 220.518 30.8067 220.544 27.7668C220.571 24.727 221.633 22.1661 223.731 20.0843C225.83 18.0025 228.469 16.9755 231.649 17.0032C233.589 17.0201 235.364 17.5056 236.976 18.4597C238.588 19.3937 239.827 20.6546 240.693 22.2422L238.824 23.306C238.175 22.0203 237.204 20.9918 235.911 20.2205C234.617 19.4492 233.191 19.0567 231.631 19.0431C229.011 19.0203 226.864 19.8516 225.189 21.5371C223.514 23.2225 222.666 25.3052 222.644 27.7851C222.623 30.265 223.434 32.3622 225.08 34.0766C226.725 35.791 228.857 36.6596 231.477 36.6824C233.037 36.696 234.47 36.3285 235.777 35.5799C237.083 34.8312 238.072 33.8198 238.743 32.5456L240.594 33.6118C239.72 35.1842 238.46 36.4333 236.811 37.3589C235.183 38.2848 233.399 38.7393 231.459 38.7224ZM250.602 38.8892C248.682 38.8724 247.036 38.4081 245.664 37.4961C244.312 36.5643 243.373 35.296 242.847 33.6914L244.656 32.6571C245.025 33.9604 245.716 34.9864 246.729 35.7353C247.743 36.4642 249.05 36.8356 250.65 36.8495C252.21 36.8631 253.423 36.5337 254.289 35.8612C255.175 35.1689 255.623 34.2527 255.633 33.1128C255.642 32.0128 255.249 31.1794 254.454 30.6124C253.659 30.0455 252.344 29.454 250.51 28.838C248.336 28.099 246.901 27.5065 246.205 27.0604C244.613 26.0865 243.826 24.6896 243.841 22.8697C243.857 21.0897 244.489 19.6952 245.738 18.686C246.987 17.6569 248.521 17.1502 250.341 17.1661C251.981 17.1804 253.398 17.6227 254.59 18.4931C255.783 19.3436 256.663 20.4313 257.232 21.7563L255.453 22.7308C254.513 20.4026 252.804 19.2276 250.324 19.206C249.024 19.1947 247.971 19.5055 247.165 20.1385C246.36 20.7715 245.952 21.658 245.942 22.798C245.933 23.8379 246.286 24.621 247.002 25.1473C247.717 25.6735 248.903 26.2139 250.558 26.7683C251.315 27.0349 251.854 27.2296 252.173 27.3524C252.512 27.4554 252.99 27.6396 253.608 27.9049C254.246 28.1505 254.714 28.3746 255.012 28.5772C255.311 28.7598 255.668 29.0229 256.085 29.3666C256.523 29.6904 256.83 30.0231 257.007 30.3647C257.204 30.6864 257.37 31.0879 257.506 31.5691C257.662 32.0304 257.738 32.5311 257.733 33.0711C257.718 34.851 257.055 36.2753 255.746 37.3439C254.437 38.3926 252.722 38.9076 250.602 38.8892Z" fill="#9ECC00"/>
</svg>
