<svg width="180" height="56" viewBox="0 0 180 56" fill="none" xmlns="http://www.w3.org/2000/svg">
<rect x="1.52856" y="1.52417" width="177.073" height="52.6617" rx="9" fill="black" stroke="black" stroke-width="2"/>
<path d="M54.6648 16.7583V37.7583H52.5648V19.9383L45.2148 32.2383H44.9148L37.5648 19.9383V37.7583H35.4648V16.7583H38.0748L45.0648 28.4583L52.0548 16.7583H54.6648ZM73.4389 37.7583L71.4889 32.5983H61.5289L59.5789 37.7583H57.3589L65.4289 16.7583H67.5889L75.6589 37.7583H73.4389ZM62.2789 30.6183H70.7389L66.5089 19.3683L62.2789 30.6183ZM84.3694 38.1183C82.4494 38.1183 80.7994 37.6683 79.4194 36.7683C78.0594 35.8483 77.1094 34.5883 76.5694 32.9883L78.3694 31.9383C78.7494 33.2383 79.4494 34.2583 80.4694 34.9983C81.4894 35.7183 82.7994 36.0783 84.3994 36.0783C85.9594 36.0783 87.1694 35.7383 88.0294 35.0583C88.9094 34.3583 89.3494 33.4383 89.3494 32.2983C89.3494 31.1983 88.9494 30.3683 88.1494 29.8083C87.3494 29.2483 86.0294 28.6683 84.1894 28.0683C82.0094 27.3483 80.5694 26.7683 79.8694 26.3283C78.2694 25.3683 77.4694 23.9783 77.4694 22.1583C77.4694 20.3783 78.0894 18.9783 79.3294 17.9583C80.5694 16.9183 82.0994 16.3983 83.9194 16.3983C85.5594 16.3983 86.9794 16.8283 88.1794 17.6883C89.3794 18.5283 90.2694 19.6083 90.8494 20.9283L89.0794 21.9183C88.1194 19.5983 86.3994 18.4383 83.9194 18.4383C82.6194 18.4383 81.5694 18.7583 80.7694 19.3983C79.9694 20.0383 79.5694 20.9283 79.5694 22.0683C79.5694 23.1083 79.9294 23.8883 80.6494 24.4083C81.3694 24.9283 82.5594 25.4583 84.2194 25.9983C84.9794 26.2583 85.5194 26.4483 85.8394 26.5683C86.1794 26.6683 86.6594 26.8483 87.2794 27.1083C87.9194 27.3483 88.3894 27.5683 88.6894 27.7683C88.9894 27.9483 89.3494 28.2083 89.7694 28.5483C90.2094 28.8683 90.5194 29.1983 90.6994 29.5383C90.8994 29.8583 91.0694 30.2583 91.2094 30.7383C91.3694 31.1983 91.4494 31.6983 91.4494 32.2383C91.4494 34.0183 90.7994 35.4483 89.4994 36.5283C88.1994 37.5883 86.4894 38.1183 84.3694 38.1183ZM104.718 38.1183C101.538 38.1183 98.9081 37.0683 96.8281 34.9683C94.7481 32.8683 93.7081 30.2983 93.7081 27.2583C93.7081 24.2183 94.7481 21.6483 96.8281 19.5483C98.9081 17.4483 101.538 16.3983 104.718 16.3983C106.658 16.3983 108.438 16.8683 110.058 17.8083C111.678 18.7283 112.928 19.9783 113.808 21.5583L111.948 22.6383C111.288 21.3583 110.308 20.3383 109.008 19.5783C107.708 18.8183 106.278 18.4383 104.718 18.4383C102.098 18.4383 99.9581 19.2883 98.2981 20.9883C96.6381 22.6883 95.8081 24.7783 95.8081 27.2583C95.8081 29.7383 96.6381 31.8283 98.2981 33.5283C99.9581 35.2283 102.098 36.0783 104.718 36.0783C106.278 36.0783 107.708 35.6983 109.008 34.9383C110.308 34.1783 111.288 33.1583 111.948 31.8783L113.808 32.9283C112.948 34.5083 111.698 35.7683 110.058 36.7083C108.438 37.6483 106.658 38.1183 104.718 38.1183ZM134.632 34.9683C132.532 37.0683 129.962 38.1183 126.922 38.1183C123.882 38.1183 121.312 37.0683 119.212 34.9683C117.112 32.8483 116.062 30.2783 116.062 27.2583C116.062 24.2383 117.112 21.6783 119.212 19.5783C121.312 17.4583 123.882 16.3983 126.922 16.3983C129.962 16.3983 132.532 17.4583 134.632 19.5783C136.732 21.6783 137.782 24.2383 137.782 27.2583C137.782 30.2783 136.732 32.8483 134.632 34.9683ZM120.682 33.5283C122.362 35.2283 124.442 36.0783 126.922 36.0783C129.402 36.0783 131.482 35.2283 133.162 33.5283C134.842 31.8083 135.682 29.7183 135.682 27.2583C135.682 24.7983 134.842 22.7183 133.162 21.0183C131.482 19.2983 129.402 18.4383 126.922 18.4383C124.442 18.4383 122.362 19.2983 120.682 21.0183C119.002 22.7183 118.162 24.7983 118.162 27.2583C118.162 29.7183 119.002 31.8083 120.682 33.5283ZM153.372 16.7583V18.7383H146.922V37.7583H144.822V18.7383H138.372V16.7583H153.372Z" fill="#9ECC00"/>
</svg>
