<svg width="173" height="55" viewBox="0 0 173 55" fill="none" xmlns="http://www.w3.org/2000/svg">
<path d="M62.1247 16.1758L62.1069 37.1758L60.0069 37.174L60.022 19.354L52.6616 31.6478L52.3616 31.6475L45.022 19.3413L45.0069 37.1613L42.9069 37.1595L42.9247 16.1595L45.5347 16.1617L52.5148 27.8677L59.5147 16.1736L62.1247 16.1758ZM69.0027 35.2016L79.2027 35.2103L79.201 37.1903L66.901 37.1799L66.9188 16.1799L79.0688 16.1902L79.0671 18.1702L69.0171 18.1616L69.0108 25.6016L78.3108 25.6095L78.3092 27.5895L69.0092 27.5816L69.0027 35.2016ZM95.7092 37.2043L90.7963 28.8001L84.9163 28.7951L84.9092 37.1951L82.8092 37.1933L82.827 16.1933L91.227 16.2005C92.967 16.2019 94.4465 16.8232 95.6654 18.0642C96.9044 19.2853 97.5232 20.7658 97.5217 22.5058C97.5205 23.9258 97.0894 25.1954 96.2285 26.3147C95.3875 27.414 94.3069 28.1531 92.9866 28.532L98.1092 37.2063L95.7092 37.2043ZM84.9253 18.1751L84.918 26.8151L91.218 26.8205C92.378 26.8214 93.3684 26.4023 94.1891 25.563C95.0098 24.7037 95.4207 23.684 95.4217 22.504C95.4227 21.304 95.0136 20.2837 94.1943 19.443C93.375 18.6023 92.3853 18.1814 91.2253 18.1805L84.9253 18.1751ZM110.929 37.5772C107.749 37.5745 105.12 36.5222 103.042 34.4205C100.964 32.3187 99.9261 29.7478 99.9287 26.7078C99.9312 23.6678 100.973 21.0987 103.055 19.0005C105.137 16.9022 107.768 15.8545 110.948 15.8572C112.888 15.8588 114.667 16.3303 116.287 17.2717C117.906 18.1931 119.155 19.4441 120.033 21.0249L118.173 22.1033C117.514 20.8227 116.535 19.8019 115.235 19.0408C113.936 18.2797 112.506 17.8985 110.946 17.8972C108.326 17.8949 106.185 18.7431 104.524 20.4417C102.863 22.1403 102.031 24.2296 102.029 26.7096C102.027 29.1896 102.855 31.2803 104.513 32.9817C106.172 34.6831 108.311 35.5349 110.931 35.5372C112.491 35.5385 113.922 35.1597 115.222 34.4008C116.523 33.6419 117.504 32.6227 118.165 31.3433L120.024 32.3949C119.163 33.9741 117.911 35.2331 116.271 36.1717C114.65 37.1103 112.869 37.5788 110.929 37.5772ZM136.991 16.2392L139.091 16.241L139.073 37.241L136.973 37.2392L136.982 27.4292L125.582 27.4196L125.573 37.2296L123.473 37.2278L123.491 16.2278L125.591 16.2296L125.583 25.4396L136.983 25.4492L136.991 16.2392Z" fill="black"/>
<rect x="1.8985" y="1.28003" width="169.351" height="52.6617" rx="9" stroke="black" stroke-width="2"/>
</svg>
