<svg width="268" height="56" viewBox="0 0 268 56" fill="none" xmlns="http://www.w3.org/2000/svg">
<path d="M57.8417 16.312L57.8195 37.312L55.7195 37.3105L55.7384 19.4906L48.3753 31.7856L48.0753 31.7854L40.7384 19.4804L40.7195 37.3004L38.6195 37.299L38.6417 16.299L41.2517 16.3007L48.2293 28.0055L55.2317 16.3102L57.8417 16.312ZM79.9865 34.537C77.8843 36.6355 75.3132 37.6838 72.2732 37.6817C69.2332 37.6797 66.6643 36.6279 64.5666 34.5265C62.4688 32.4051 61.4215 29.8344 61.4247 26.8144C61.4279 23.7944 62.4807 21.2351 64.5829 19.1365C66.6851 17.018 69.2563 15.9597 72.2963 15.9618C75.3363 15.9638 77.9051 17.0256 80.0029 19.147C82.1007 21.2484 83.1479 23.8091 83.1447 26.8291C83.1415 29.8491 82.0888 32.4184 79.9865 34.537ZM66.0381 33.0875C67.7163 34.7887 69.7954 35.6401 72.2754 35.6417C74.7554 35.6434 76.8363 34.7948 78.5181 33.096C80.1999 31.3771 81.0421 29.2877 81.0447 26.8277C81.0473 24.3677 80.2095 22.2871 78.5314 20.586C76.8532 18.8648 74.7741 18.0034 72.2941 18.0018C69.8141 18.0001 67.7332 18.8587 66.0514 20.5775C64.3696 22.2764 63.5273 24.3558 63.5247 26.8158C63.5221 29.2758 64.3599 31.3664 66.0381 33.0875ZM94.8472 16.337C97.7072 16.339 100.066 17.3606 101.924 19.4018C103.802 21.4231 104.739 23.9037 104.736 26.8437C104.733 29.7837 103.79 32.2731 101.908 34.3118C100.046 36.3305 97.6849 37.3389 94.8249 37.337L86.7249 37.3315L86.7472 16.3315L94.8472 16.337ZM94.827 35.357C97.127 35.3586 99.0079 34.5398 100.47 32.9008C101.951 31.2618 102.694 29.2423 102.696 26.8423C102.699 24.4423 101.961 22.4218 100.482 20.7808C99.0242 19.1398 97.1451 18.3186 94.8451 18.317L88.8451 18.313L88.827 35.3529L94.827 35.357ZM110.419 35.3676L120.619 35.3745L120.617 37.3545L108.317 37.3461L108.339 16.3461L120.489 16.3544L120.487 18.3344L110.437 18.3276L110.429 25.7676L119.729 25.7739L119.727 27.7539L110.427 27.7476L110.419 35.3676ZM137.125 37.3656L132.214 28.9623L126.334 28.9583L126.325 37.3583L124.225 37.3569L124.247 16.3569L132.647 16.3626C134.387 16.3638 135.867 16.9848 137.085 18.2256C138.324 19.4464 138.942 20.9269 138.94 22.6669C138.939 24.0869 138.508 25.3566 137.646 26.476C136.805 27.5754 135.725 28.3147 134.404 28.6938L139.525 37.3673L137.125 37.3656ZM126.345 18.3383L126.336 26.9783L132.636 26.9826C133.796 26.9834 134.786 26.5641 135.607 25.7246C136.428 24.8652 136.839 23.8454 136.84 22.6654C136.842 21.4654 136.433 20.4452 135.614 19.6046C134.795 18.7641 133.805 18.3434 132.645 18.3426L126.345 18.3383ZM156.515 37.3788L154.571 32.2174L144.611 32.2107L142.655 37.3694L140.435 37.3679L148.528 16.3733L150.688 16.3748L158.735 37.3803L156.515 37.3788ZM145.363 30.2312L153.823 30.2369L149.605 18.9841L145.363 30.2312ZM173.16 16.39L173.158 18.37L166.708 18.3657L166.688 37.3856L164.588 37.3842L164.608 18.3642L158.158 18.3599L158.16 16.3799L173.16 16.39ZM176.161 16.3921L178.261 16.3935L178.239 37.3935L176.139 37.392L176.161 16.3921ZM200.426 34.6185C198.324 36.7171 195.753 37.7653 192.713 37.7633C189.673 37.7612 187.104 36.7095 185.006 34.608C182.908 32.4866 181.861 29.9159 181.864 26.8959C181.867 23.8759 182.92 21.3166 185.022 19.218C187.125 17.0995 189.696 16.0412 192.736 16.0433C195.776 16.0453 198.345 17.1071 200.442 19.2285C202.54 21.3299 203.587 23.8906 203.584 26.9106C203.581 29.9306 202.528 32.4999 200.426 34.6185ZM186.477 33.169C188.156 34.8702 190.235 35.7216 192.715 35.7233C195.195 35.7249 197.276 34.8763 198.957 33.1775C200.639 31.4586 201.482 29.3692 201.484 26.9092C201.487 24.4492 200.649 22.3686 198.971 20.6675C197.293 18.9464 195.214 18.0849 192.734 18.0833C190.254 18.0816 188.173 18.9402 186.491 20.659C184.809 22.3579 183.967 24.4373 183.964 26.8973C183.962 29.3573 184.799 31.4479 186.477 33.169ZM220.687 16.4222L222.787 16.4236L222.764 37.4236L220.964 37.4224L209.282 20.3145L209.264 37.4145L207.164 37.413L207.187 16.413L208.987 16.4143L220.668 33.5222L220.687 16.4222Z" fill="black"/>
<rect x="1.02173" y="1.54956" width="265.776" height="52.6617" rx="9" stroke="black" stroke-width="2"/>
</svg>
