<svg width="170" height="56" viewBox="0 0 170 56" fill="none" xmlns="http://www.w3.org/2000/svg">
<rect x="1.84918" y="1.82471" width="166.827" height="52.6617" rx="9" fill="black" stroke="black" stroke-width="2"/>
<path d="M47.8244 14.5673L49.9235 14.6317L49.279 35.6218L47.4798 35.5666L36.3101 18.1156L35.7853 35.2075L33.6863 35.1431L34.3308 14.153L36.13 14.2082L47.2996 31.6592L47.8244 14.5673ZM68.0407 36.1979L66.25 30.9805L56.2947 30.6748L54.1873 35.7725L51.9683 35.7044L60.679 14.962L62.838 15.0283L70.2597 36.266L68.0407 36.1979ZM57.1051 28.7188L65.5611 28.9784L61.6784 17.6039L57.1051 28.7188ZM92.7904 15.9479L92.1459 36.938L90.0469 36.8736L90.5938 19.062L82.8697 31.1306L82.5699 31.1214L75.6008 18.6016L75.0539 36.4132L72.9549 36.3488L73.5994 15.3587L76.2082 15.4388L82.8358 27.3478L90.1816 15.8678L92.7904 15.9479ZM97.5822 16.095L99.6813 16.1595L99.0368 37.1496L96.9378 37.0852L97.5822 16.095ZM117.987 16.7216L120.086 16.786L119.441 37.7761L117.642 37.7209L106.472 20.2699L105.948 37.3618L103.849 37.2973L104.493 16.3072L106.292 16.3625L117.462 33.8135L117.987 16.7216ZM144.597 28.5538L144.564 29.6333C144.484 32.2321 143.487 34.4025 141.572 36.1445C139.659 37.8666 137.142 38.6798 134.024 38.584C130.845 38.4864 128.249 37.3562 126.234 35.1934C124.22 33.0305 123.259 30.4298 123.352 27.3913C123.446 24.3527 124.564 21.8158 126.708 19.7806C128.851 17.7455 131.512 16.7767 134.69 16.8743C136.63 16.9338 138.394 17.4582 139.985 18.4475C141.575 19.4368 142.786 20.7245 143.618 22.3108L141.726 23.3332C141.105 22.0336 140.157 20.984 138.881 20.1844C137.605 19.3849 136.187 18.9612 134.628 18.9133C132.009 18.8329 129.844 19.6168 128.133 21.2651C126.421 22.9133 125.528 24.9769 125.451 27.4557C125.375 29.9345 126.141 32.049 127.748 33.7992C129.355 35.5493 131.468 36.4646 134.087 36.545C136.445 36.6174 138.353 36.0857 139.808 34.9498C141.264 33.794 142.121 32.2996 142.377 30.4666L134.041 30.2106L134.102 28.2315L144.597 28.5538Z" fill="#9ECC00"/>
</svg>
