<svg width="113" height="56" viewBox="0 0 113 56" fill="none" xmlns="http://www.w3.org/2000/svg">
<path d="M47.8814 16.1723L49.9813 16.1761L49.973 37.1761L48.173 37.1729L36.4798 20.0518L36.473 37.1518L34.373 37.148L34.3814 16.148L36.1814 16.1513L47.8745 33.2723L47.8814 16.1723ZM66.6212 18.1861L56.8712 18.1685L56.8681 25.9085L66.1681 25.9253L66.1673 27.9053L56.8673 27.8885L56.8636 37.1885L54.7636 37.1848L54.772 16.1848L66.6219 16.2061L66.6212 18.1861ZM83.4114 16.2363L83.4106 18.2163L76.9606 18.2047L76.953 37.2247L74.853 37.2209L74.8606 18.2009L68.4106 18.1893L68.4114 16.2093L83.4114 16.2363Z" fill="black"/>
<rect x="1.60486" y="1.44653" width="109.576" height="52.6617" rx="9" stroke="black" stroke-width="2"/>
</svg>
