<svg width="298" height="55" viewBox="0 0 298 55" fill="none" xmlns="http://www.w3.org/2000/svg">
<rect x="1.19812" y="1.09814" width="295.579" height="52.6617" rx="9" fill="black" stroke="black" stroke-width="2"/>
<path d="M53.8254 14.6843C55.7054 14.6843 57.2754 15.3143 58.5354 16.5743C59.7954 17.8343 60.4254 19.4043 60.4254 21.2843C60.4254 23.1643 59.7954 24.7343 58.5354 25.9943C57.2754 27.2543 55.7054 27.8843 53.8254 27.8843H48.4254V35.6843H46.3254V14.6843H53.8254ZM53.8254 25.9043C55.1254 25.9043 56.1954 25.4743 57.0354 24.6143C57.8954 23.7343 58.3254 22.6243 58.3254 21.2843C58.3254 19.9443 57.8954 18.8443 57.0354 17.9843C56.1954 17.1043 55.1254 16.6643 53.8254 16.6643H48.4254V25.9043H53.8254ZM76.9208 35.6843L72.0008 27.2843H66.1208V35.6843H64.0208V14.6843H72.4208C74.1608 14.6843 75.6408 15.3043 76.8608 16.5443C78.1008 17.7643 78.7208 19.2443 78.7208 20.9843C78.7208 22.4043 78.2908 23.6743 77.4308 24.7943C76.5908 25.8943 75.5108 26.6343 74.1908 27.0143L79.3208 35.6843H76.9208ZM66.1208 16.6643V25.3043H72.4208C73.5808 25.3043 74.5708 24.8843 75.3908 24.0443C76.2108 23.1843 76.6208 22.1643 76.6208 20.9843C76.6208 19.7843 76.2108 18.7643 75.3908 17.9243C74.5708 17.0843 73.5808 16.6643 72.4208 16.6643H66.1208ZM84.4313 33.7043H94.6313V35.6843H82.3313V14.6843H94.4813V16.6643H84.4313V24.1043H93.7313V26.0843H84.4313V33.7043ZM104.84 36.0443C102.92 36.0443 101.27 35.5943 99.8895 34.6943C98.5295 33.7743 97.5795 32.5143 97.0395 30.9143L98.8395 29.8643C99.2195 31.1643 99.9195 32.1843 100.94 32.9243C101.96 33.6443 103.27 34.0043 104.87 34.0043C106.43 34.0043 107.64 33.6643 108.5 32.9843C109.38 32.2843 109.82 31.3643 109.82 30.2243C109.82 29.1243 109.42 28.2943 108.62 27.7343C107.82 27.1743 106.5 26.5943 104.66 25.9943C102.48 25.2743 101.04 24.6943 100.34 24.2543C98.7395 23.2943 97.9395 21.9043 97.9395 20.0843C97.9395 18.3043 98.5595 16.9043 99.7995 15.8843C101.04 14.8443 102.57 14.3243 104.39 14.3243C106.03 14.3243 107.45 14.7543 108.65 15.6143C109.85 16.4543 110.74 17.5343 111.32 18.8543L109.55 19.8443C108.59 17.5243 106.87 16.3643 104.39 16.3643C103.09 16.3643 102.04 16.6843 101.24 17.3243C100.44 17.9643 100.04 18.8543 100.04 19.9943C100.04 21.0343 100.4 21.8143 101.12 22.3343C101.84 22.8543 103.03 23.3843 104.69 23.9243C105.45 24.1843 105.99 24.3743 106.31 24.4943C106.65 24.5943 107.13 24.7743 107.75 25.0343C108.39 25.2743 108.86 25.4943 109.16 25.6943C109.46 25.8743 109.82 26.1343 110.24 26.4743C110.68 26.7943 110.99 27.1243 111.17 27.4643C111.37 27.7843 111.54 28.1843 111.68 28.6643C111.84 29.1243 111.92 29.6243 111.92 30.1643C111.92 31.9443 111.27 33.3743 109.97 34.4543C108.67 35.5143 106.96 36.0443 104.84 36.0443ZM117.478 33.7043H127.678V35.6843H115.378V14.6843H127.528V16.6643H117.478V24.1043H126.778V26.0843H117.478V33.7043ZM144.786 14.6843L146.886 14.6843V35.6843H145.086L133.386 18.5843V35.6843H131.286V14.6843H133.086L144.786 31.7843V14.6843ZM164.877 14.6843V16.6643H158.427V35.6843H156.327V16.6643H149.877V14.6843H164.877ZM180.364 35.6843L178.414 30.5243H168.454L166.504 35.6843H164.284L172.354 14.6843H174.514L182.584 35.6843H180.364ZM169.204 28.5443H177.664L173.434 17.2943L169.204 28.5443ZM196.986 14.6843V16.6643H190.536V35.6843H188.436V16.6643H181.986V14.6843H196.986ZM199.988 14.6843H202.088V35.6843H199.988V14.6843ZM224.272 32.8943C222.172 34.9943 219.602 36.0443 216.562 36.0443C213.522 36.0443 210.952 34.9943 208.852 32.8943C206.752 30.7743 205.702 28.2043 205.702 25.1843C205.702 22.1643 206.752 19.6043 208.852 17.5043C210.952 15.3843 213.522 14.3243 216.562 14.3243C219.602 14.3243 222.172 15.3843 224.272 17.5043C226.372 19.6043 227.422 22.1643 227.422 25.1843C227.422 28.2043 226.372 30.7743 224.272 32.8943ZM210.322 31.4543C212.002 33.1543 214.082 34.0043 216.562 34.0043C219.042 34.0043 221.122 33.1543 222.802 31.4543C224.482 29.7343 225.322 27.6443 225.322 25.1843C225.322 22.7243 224.482 20.6443 222.802 18.9443C221.122 17.2243 219.042 16.3643 216.562 16.3643C214.082 16.3643 212.002 17.2243 210.322 18.9443C208.642 20.6443 207.802 22.7243 207.802 25.1843C207.802 27.6443 208.642 29.7343 210.322 31.4543ZM244.513 14.6843H246.613V35.6843H244.813L233.113 18.5843V35.6843H231.013V14.6843H232.813L244.513 31.7843V14.6843ZM257.711 36.0443C255.791 36.0443 254.141 35.5943 252.761 34.6943C251.401 33.7743 250.451 32.5143 249.911 30.9143L251.711 29.8643C252.091 31.1643 252.791 32.1843 253.811 32.9243C254.831 33.6443 256.141 34.0043 257.741 34.0043C259.301 34.0043 260.511 33.6643 261.371 32.9843C262.251 32.2843 262.691 31.3643 262.691 30.2243C262.691 29.1243 262.291 28.2943 261.491 27.7343C260.691 27.1743 259.371 26.5943 257.531 25.9943C255.351 25.2743 253.911 24.6943 253.211 24.2543C251.611 23.2943 250.811 21.9043 250.811 20.0843C250.811 18.3043 251.431 16.9043 252.671 15.8843C253.911 14.8443 255.441 14.3243 257.261 14.3243C258.901 14.3243 260.321 14.7543 261.521 15.6143C262.721 16.4543 263.611 17.5343 264.191 18.8543L262.421 19.8443C261.461 17.5243 259.741 16.3643 257.261 16.3643C255.961 16.3643 254.911 16.6843 254.111 17.3243C253.311 17.9643 252.911 18.8543 252.911 19.9943C252.911 21.0343 253.271 21.8143 253.991 22.3343C254.711 22.8543 255.901 23.3843 257.561 23.9243C258.321 24.1843 258.861 24.3743 259.181 24.4943C259.521 24.5943 260.001 24.7743 260.621 25.0343C261.261 25.2743 261.731 25.4943 262.031 25.6943C262.331 25.8743 262.691 26.1343 263.111 26.4743C263.551 26.7943 263.861 27.1243 264.041 27.4643C264.241 27.7843 264.411 28.1843 264.551 28.6643C264.711 29.1243 264.791 29.6243 264.791 30.1643C264.791 31.9443 264.141 33.3743 262.841 34.4543C261.541 35.5143 259.831 36.0443 257.711 36.0443Z" fill="#9ECC00"/>
</svg>
