<svg width="238" height="56" viewBox="0 0 238 56" fill="none" xmlns="http://www.w3.org/2000/svg">
<path d="M45.6729 16.8473C47.5529 16.8489 49.1223 17.4803 50.3813 18.7413C51.6402 20.0024 52.2689 21.5729 52.2673 23.4529C52.2657 25.3329 51.6343 26.9024 50.3733 28.1613C49.1122 29.4203 47.5417 30.0489 45.6617 30.0473L40.2617 30.0428L40.2551 37.8428L38.1551 37.841L38.1729 16.841L45.6729 16.8473ZM45.6634 28.0673C46.9634 28.0684 48.0337 27.6393 48.8745 26.7801C49.7352 25.9008 50.1661 24.7911 50.1673 23.4511C50.1684 22.1111 49.7393 21.0108 48.8801 20.1501C48.0408 19.2693 46.9712 18.8284 45.6712 18.8273L40.2712 18.8228L40.2634 28.0628L45.6634 28.0673ZM68.7504 37.8669L63.8375 29.4627L57.9575 29.4578L57.9504 37.8578L55.8504 37.856L55.8682 16.856L64.2682 16.8631C66.0082 16.8646 67.4876 17.4858 68.7066 18.7269C69.9456 19.9479 70.5643 21.4284 70.5628 23.1684C70.5616 24.5884 70.1306 25.8581 69.2696 26.9773C68.4287 28.0766 67.348 28.8157 66.0277 29.1946L71.1504 37.8689L68.7504 37.8669ZM57.9665 18.8378L57.9592 27.4778L64.2592 27.4831C65.4192 27.4841 66.4095 27.0649 67.2302 26.2256C68.051 25.3663 68.4618 24.3467 68.4628 23.1667C68.4638 21.9667 68.0547 20.9463 67.2354 20.1056C66.4161 19.2649 65.4265 18.8441 64.2665 18.8431L57.9665 18.8378ZM91.5333 35.0962C89.4315 37.1944 86.8606 38.2423 83.8206 38.2397C80.7806 38.2371 78.2115 37.1849 76.1133 35.0831C74.0151 32.9614 72.9673 30.3905 72.9698 27.3705C72.9724 24.3505 74.0245 21.7914 76.1263 19.6931C78.2281 17.5749 80.799 16.5171 83.839 16.5197C86.879 16.5223 89.4481 17.5844 91.5463 19.7062C93.6445 21.808 94.6924 24.3689 94.6898 27.3889C94.6873 30.4089 93.6351 32.978 91.5333 35.0962ZM77.5845 33.6444C79.2631 35.3458 81.3423 36.1976 83.8223 36.1997C86.3023 36.2018 88.3831 35.3535 90.0645 33.655C91.746 31.9364 92.5877 29.8471 92.5898 27.3871C92.5919 24.9271 91.7537 22.8464 90.0751 21.145C88.3966 19.4235 86.3173 18.5618 83.8373 18.5597C81.3573 18.5576 79.2766 19.4158 77.5951 21.1344C75.9137 22.833 75.0719 24.9123 75.0698 27.3723C75.0677 29.8323 75.906 31.923 77.5845 33.6444ZM117.49 16.9082L117.472 37.9082L115.372 37.9064L115.387 20.0864L108.027 32.3802L107.727 32.3799L100.387 20.0737L100.372 37.8937L98.2722 37.8919L98.29 16.8919L100.9 16.8941L107.88 28.6001L114.88 16.906L117.49 16.9082ZM139.639 35.137C137.537 37.2352 134.966 38.283 131.926 38.2804C128.886 38.2779 126.317 37.2257 124.219 35.1239C122.121 33.0021 121.073 30.4312 121.075 27.4112C121.078 24.3912 122.13 21.8321 124.232 19.7339C126.334 17.6157 128.904 16.5579 131.944 16.5605C134.984 16.563 137.554 17.6252 139.652 19.747C141.75 21.8488 142.798 24.4097 142.795 27.4297C142.793 30.4496 141.741 33.0188 139.639 35.137ZM125.69 33.6852C127.369 35.3866 129.448 36.2383 131.928 36.2404C134.408 36.2425 136.489 35.3943 138.17 33.6957C139.851 31.9772 140.693 29.8879 140.695 27.4279C140.697 24.9679 139.859 22.8872 138.181 21.1857C136.502 19.4643 134.423 18.6026 131.943 18.6004C129.463 18.5983 127.382 19.4566 125.701 21.1752C124.019 22.8737 123.177 24.953 123.175 27.413C123.173 29.873 124.011 31.9637 125.69 33.6852ZM158.394 16.9429L158.393 18.9229L151.943 18.9174L151.927 37.9374L149.827 37.9356L149.843 18.9156L143.393 18.9102L143.394 16.9302L158.394 16.9429ZM161.395 16.9454L163.495 16.9472L163.478 37.9472L161.378 37.9454L161.395 16.9454ZM185.664 35.176C183.562 37.2742 180.991 38.322 177.951 38.3194C174.911 38.3169 172.342 37.2647 170.244 35.1629C168.146 33.0411 167.098 30.4702 167.101 27.4502C167.103 24.4302 168.155 21.8711 170.257 19.7729C172.359 17.6547 174.93 16.5969 177.97 16.5995C181.01 16.602 183.579 17.6642 185.677 19.786C187.775 21.8878 188.823 24.4487 188.821 27.4687C188.818 30.4887 187.766 33.0578 185.664 35.176ZM171.715 33.7242C173.394 35.4256 175.473 36.2773 177.953 36.2794C180.433 36.2816 182.514 35.4333 184.195 33.7347C185.877 32.0162 186.719 29.9269 186.721 27.4669C186.723 25.0069 185.884 22.9262 184.206 21.2247C182.527 19.5033 180.448 18.6416 177.968 18.6395C175.488 18.6374 173.407 19.4956 171.726 21.2142C170.044 22.9127 169.203 24.992 169.201 27.452C169.199 29.912 170.037 32.0027 171.715 33.7242ZM205.921 16.9831L208.021 16.9849L208.003 37.9849L206.203 37.9834L194.518 20.8735L194.503 37.9735L192.403 37.9717L192.421 16.9717L194.221 16.9732L205.906 34.0831L205.921 16.9831Z" fill="black"/>
<rect x="1.19116" y="1.8418" width="235.148" height="52.6617" rx="9" stroke="black" stroke-width="2"/>
</svg>
