<svg width="325" height="56" viewBox="0 0 325 56" fill="none" xmlns="http://www.w3.org/2000/svg">
<path d="M76.2055 15.8269C78.0855 15.8269 79.6555 16.4569 80.9155 17.7169C82.1755 18.9769 82.8055 20.5469 82.8055 22.4269C82.8055 24.3069 82.1755 25.8769 80.9155 27.1369C79.6555 28.3969 78.0855 29.0269 76.2055 29.0269H70.8055V36.8269H68.7055V15.8269H76.2055ZM76.2055 27.0469C77.5055 27.0469 78.5755 26.6169 79.4155 25.7569C80.2755 24.8769 80.7055 23.7669 80.7055 22.4269C80.7055 21.0869 80.2755 19.9869 79.4155 19.1269C78.5755 18.2469 77.5055 17.8069 76.2055 17.8069H70.8055V27.0469H76.2055ZM99.3008 36.8269L94.3808 28.4269H88.5008V36.8269H86.4008V15.8269H94.8008C96.5408 15.8269 98.0208 16.4469 99.2408 17.6869C100.481 18.9069 101.101 20.3869 101.101 22.1269C101.101 23.5469 100.671 24.8169 99.8108 25.9369C98.9708 27.0369 97.8908 27.7769 96.5708 28.1569L101.701 36.8269H99.3008ZM88.5008 17.8069V26.4469H94.8008C95.9608 26.4469 96.9508 26.0269 97.7708 25.1869C98.5908 24.3269 99.0008 23.3069 99.0008 22.1269C99.0008 20.9269 98.5908 19.9069 97.7708 19.0669C96.9508 18.2269 95.9608 17.8069 94.8008 17.8069H88.5008ZM122.081 34.0369C119.981 36.1369 117.411 37.1869 114.371 37.1869C111.331 37.1869 108.761 36.1369 106.661 34.0369C104.561 31.9169 103.511 29.3469 103.511 26.3269C103.511 23.3069 104.561 20.7469 106.661 18.6469C108.761 16.5269 111.331 15.4669 114.371 15.4669C117.411 15.4669 119.981 16.5269 122.081 18.6469C124.181 20.7469 125.231 23.3069 125.231 26.3269C125.231 29.3469 124.181 31.9169 122.081 34.0369ZM108.131 32.5969C109.811 34.2969 111.891 35.1469 114.371 35.1469C116.851 35.1469 118.931 34.2969 120.611 32.5969C122.291 30.8769 123.131 28.7869 123.131 26.3269C123.131 23.8669 122.291 21.7869 120.611 20.0869C118.931 18.3669 116.851 17.5069 114.371 17.5069C111.891 17.5069 109.811 18.3669 108.131 20.0869C106.451 21.7869 105.611 23.8669 105.611 26.3269C105.611 28.7869 106.451 30.8769 108.131 32.5969ZM148.023 15.8269V36.8269H145.923V19.0069L138.573 31.3069H138.273L130.923 19.0069V36.8269H128.823V15.8269H131.433L138.423 27.5269L145.413 15.8269H148.023ZM170.187 34.0369C168.087 36.1369 165.517 37.1869 162.477 37.1869C159.437 37.1869 156.867 36.1369 154.767 34.0369C152.667 31.9169 151.617 29.3469 151.617 26.3269C151.617 23.3069 152.667 20.7469 154.767 18.6469C156.867 16.5269 159.437 15.4669 162.477 15.4669C165.517 15.4669 168.087 16.5269 170.187 18.6469C172.287 20.7469 173.337 23.3069 173.337 26.3269C173.337 29.3469 172.287 31.9169 170.187 34.0369ZM156.237 32.5969C157.917 34.2969 159.997 35.1469 162.477 35.1469C164.957 35.1469 167.037 34.2969 168.717 32.5969C170.397 30.8769 171.237 28.7869 171.237 26.3269C171.237 23.8669 170.397 21.7869 168.717 20.0869C167.037 18.3669 164.957 17.5069 162.477 17.5069C159.997 17.5069 157.917 18.3669 156.237 20.0869C154.557 21.7869 153.717 23.8669 153.717 26.3269C153.717 28.7869 154.557 30.8769 156.237 32.5969ZM190.068 36.8269L182.328 15.8269H184.608L191.148 34.0369L197.688 15.8269H199.968L192.228 36.8269H190.068ZM202.68 15.8269H204.78V36.8269H202.68V15.8269ZM217.694 15.8269C220.554 15.8269 222.914 16.8469 224.774 18.8869C226.654 20.9069 227.594 23.3869 227.594 26.3269C227.594 29.2669 226.654 31.7569 224.774 33.7969C222.914 35.8169 220.554 36.8269 217.694 36.8269H209.594V15.8269H217.694ZM217.694 34.8469C219.994 34.8469 221.874 34.0269 223.334 32.3869C224.814 30.7469 225.554 28.7269 225.554 26.3269C225.554 23.9269 224.814 21.9069 223.334 20.2669C221.874 18.6269 219.994 17.8069 217.694 17.8069H211.694V34.8469H217.694ZM233.286 34.8469H243.486V36.8269H231.186V15.8269L243.336 15.8269V17.8069L233.286 17.8069V25.2469H242.586V27.2269H233.286V34.8469ZM264.318 34.0369C262.218 36.1369 259.648 37.1869 256.608 37.1869C253.568 37.1869 250.998 36.1369 248.898 34.0369C246.798 31.9169 245.748 29.3469 245.748 26.3269C245.748 23.3069 246.798 20.7469 248.898 18.6469C250.998 16.5269 253.568 15.4669 256.608 15.4669C259.648 15.4669 262.218 16.5269 264.318 18.6469C266.418 20.7469 267.468 23.3069 267.468 26.3269C267.468 29.3469 266.418 31.9169 264.318 34.0369ZM250.368 32.5969C252.048 34.2969 254.128 35.1469 256.608 35.1469C259.088 35.1469 261.168 34.2969 262.848 32.5969C264.528 30.8769 265.368 28.7869 265.368 26.3269C265.368 23.8669 264.528 21.7869 262.848 20.0869C261.168 18.3669 259.088 17.5069 256.608 17.5069C254.128 17.5069 252.048 18.3669 250.368 20.0869C248.688 21.7869 247.848 23.8669 247.848 26.3269C247.848 28.7869 248.688 30.8769 250.368 32.5969Z" fill="black"/>
<rect x="1.38379" y="1.53296" width="322.455" height="52.6617" rx="9" stroke="black" stroke-width="2"/>
</svg>
