<svg width="126" height="56" viewBox="0 0 126 56" fill="none" xmlns="http://www.w3.org/2000/svg">
<rect x="1.80933" y="1.42627" width="122.495" height="52.6617" rx="9" fill="black" stroke="black" stroke-width="2"/>
<path d="M41.342 36.5827C39.422 36.5827 37.772 36.1327 36.392 35.2327C35.032 34.3127 34.082 33.0527 33.542 31.4527L35.342 30.4027C35.722 31.7027 36.422 32.7227 37.442 33.4627C38.462 34.1827 39.772 34.5427 41.372 34.5427C42.932 34.5427 44.142 34.2027 45.002 33.5227C45.882 32.8227 46.322 31.9027 46.322 30.7627C46.322 29.6627 45.922 28.8327 45.122 28.2727C44.322 27.7127 43.002 27.1327 41.162 26.5327C38.982 25.8127 37.542 25.2327 36.842 24.7927C35.242 23.8327 34.442 22.4427 34.442 20.6227C34.442 18.8427 35.062 17.4427 36.302 16.4227C37.542 15.3827 39.072 14.8627 40.892 14.8627C42.532 14.8627 43.952 15.2927 45.152 16.1527C46.352 16.9927 47.242 18.0727 47.822 19.3927L46.052 20.3827C45.092 18.0627 43.372 16.9027 40.892 16.9027C39.592 16.9027 38.542 17.2227 37.742 17.8627C36.942 18.5027 36.542 19.3927 36.542 20.5327C36.542 21.5727 36.902 22.3527 37.622 22.8727C38.342 23.3927 39.532 23.9227 41.192 24.4627C41.952 24.7227 42.492 24.9127 42.812 25.0327C43.152 25.1327 43.632 25.3127 44.252 25.5727C44.892 25.8127 45.362 26.0327 45.662 26.2327C45.962 26.4127 46.322 26.6727 46.742 27.0127C47.182 27.3327 47.492 27.6627 47.672 28.0027C47.872 28.3227 48.042 28.7227 48.182 29.2027C48.342 29.6627 48.422 30.1627 48.422 30.7027C48.422 32.4827 47.772 33.9127 46.472 34.9927C45.172 36.0527 43.462 36.5827 41.342 36.5827ZM71.0807 15.2227V36.2227H68.9807V18.4027L61.6307 30.7027H61.3307L53.9807 18.4027V36.2227H51.8807V15.2227H54.4907L61.4807 26.9227L68.4707 15.2227H71.0807ZM95.0749 15.2227V36.2227H92.9749V18.4027L85.6249 30.7027H85.3249L77.9749 18.4027V36.2227H75.8749V15.2227H78.4849L85.4749 26.9227L92.4649 15.2227H95.0749Z" fill="#9ECC00"/>
</svg>
