<svg width="267" height="56" viewBox="0 0 267 56" fill="none" xmlns="http://www.w3.org/2000/svg">
<rect x="1.70532" y="1.66919" width="263.95" height="52.6617" rx="9" fill="black" stroke="black" stroke-width="2"/>
<path d="M59.0529 36.3906C57.6129 37.7506 55.7329 38.4306 53.4129 38.4306C51.0929 38.4306 49.2129 37.7506 47.7729 36.3906C46.3329 35.0306 45.6129 33.2106 45.6129 30.9306V17.0706H47.7129V30.9306C47.7129 32.6106 48.2129 33.9406 49.2129 34.9206C50.2129 35.9006 51.6129 36.3906 53.4129 36.3906C55.2129 36.3906 56.6129 35.9006 57.6129 34.9206C58.6129 33.9406 59.1129 32.6106 59.1129 30.9306V17.0706H61.2129V30.9306C61.2129 33.2106 60.4929 35.0306 59.0529 36.3906ZM65.7176 17.0706H67.8176V38.0706H65.7176V17.0706ZM72.9316 41.0706H71.4316L83.4316 14.0706H84.9316L72.9316 41.0706ZM101.68 36.3906C100.24 37.7506 98.3598 38.4306 96.0398 38.4306C93.7198 38.4306 91.8398 37.7506 90.3998 36.3906C88.9598 35.0306 88.2398 33.2106 88.2398 30.9306V17.0706H90.3398V30.9306C90.3398 32.6106 90.8398 33.9406 91.8398 34.9206C92.8398 35.9006 94.2398 36.3906 96.0398 36.3906C97.8398 36.3906 99.2398 35.9006 100.24 34.9206C101.24 33.9406 101.74 32.6106 101.74 30.9306V17.0706H103.84V30.9306C103.84 33.2106 103.12 35.0306 101.68 36.3906ZM122.452 38.0706H120.052L114.352 29.1006L108.652 38.0706H106.252L113.152 27.2406L106.702 17.0706H109.072L114.352 25.3506L119.632 17.0706H122.002L115.552 27.2406L122.452 38.0706ZM141.054 17.0706C143.914 17.0706 146.274 18.0906 148.134 20.1306C150.014 22.1506 150.954 24.6306 150.954 27.5706C150.954 30.5106 150.014 33.0006 148.134 35.0406C146.274 37.0606 143.914 38.0706 141.054 38.0706H132.954V17.0706H141.054ZM141.054 36.0906C143.354 36.0906 145.234 35.2706 146.694 33.6306C148.174 31.9906 148.914 29.9706 148.914 27.5706C148.914 25.1706 148.174 23.1506 146.694 21.5106C145.234 19.8706 143.354 19.0506 141.054 19.0506H135.054V36.0906H141.054ZM156.646 36.0906H166.846V38.0706H154.546V17.0706H166.696V19.0506H156.646V26.4906H165.946V28.4706H156.646V36.0906ZM177.054 38.4306C175.134 38.4306 173.484 37.9806 172.104 37.0806C170.744 36.1606 169.794 34.9006 169.254 33.3006L171.054 32.2506C171.434 33.5506 172.134 34.5706 173.154 35.3106C174.174 36.0306 175.484 36.3906 177.084 36.3906C178.644 36.3906 179.854 36.0506 180.714 35.3706C181.594 34.6706 182.034 33.7506 182.034 32.6106C182.034 31.5106 181.634 30.6806 180.834 30.1206C180.034 29.5606 178.714 28.9806 176.874 28.3806C174.694 27.6606 173.254 27.0806 172.554 26.6406C170.954 25.6806 170.154 24.2906 170.154 22.4706C170.154 20.6906 170.774 19.2906 172.014 18.2706C173.254 17.2306 174.784 16.7106 176.604 16.7106C178.244 16.7106 179.664 17.1406 180.864 18.0006C182.064 18.8406 182.954 19.9206 183.534 21.2406L181.764 22.2306C180.804 19.9106 179.084 18.7506 176.604 18.7506C175.304 18.7506 174.254 19.0706 173.454 19.7106C172.654 20.3506 172.254 21.2406 172.254 22.3806C172.254 23.4206 172.614 24.2006 173.334 24.7206C174.054 25.2406 175.244 25.7706 176.904 26.3106C177.664 26.5706 178.204 26.7606 178.524 26.8806C178.864 26.9806 179.344 27.1606 179.964 27.4206C180.604 27.6606 181.074 27.8806 181.374 28.0806C181.674 28.2606 182.034 28.5206 182.454 28.8606C182.894 29.1806 183.204 29.5106 183.384 29.8506C183.584 30.1706 183.754 30.5706 183.894 31.0506C184.054 31.5106 184.134 32.0106 184.134 32.5506C184.134 34.3306 183.484 35.7606 182.184 36.8406C180.884 37.9006 179.174 38.4306 177.054 38.4306ZM187.593 17.0706H189.693V38.0706H187.593V17.0706ZM214.577 28.0806V29.1606C214.577 31.7606 213.647 33.9606 211.787 35.7606C209.927 37.5406 207.437 38.4306 204.317 38.4306C201.137 38.4306 198.507 37.3806 196.427 35.2806C194.347 33.1806 193.307 30.6106 193.307 27.5706C193.307 24.5306 194.347 21.9606 196.427 19.8606C198.507 17.7606 201.137 16.7106 204.317 16.7106C206.257 16.7106 208.037 17.1806 209.657 18.1206C211.277 19.0606 212.527 20.3106 213.407 21.8706L211.547 22.9506C210.887 21.6706 209.907 20.6506 208.607 19.8906C207.307 19.1306 205.877 18.7506 204.317 18.7506C201.697 18.7506 199.557 19.6006 197.897 21.3006C196.237 23.0006 195.407 25.0906 195.407 27.5706C195.407 30.0506 196.237 32.1406 197.897 33.8406C199.557 35.5406 201.697 36.3906 204.317 36.3906C206.677 36.3906 208.567 35.8006 209.987 34.6206C211.407 33.4206 212.217 31.9006 212.417 30.0606H204.077V28.0806H214.577ZM231.678 17.0706H233.778V38.0706H231.978L220.278 20.9706V38.0706H218.178V17.0706H219.978L231.678 34.1706V17.0706Z" fill="#9ECC00"/>
</svg>
