<?xml version="1.0" encoding="utf-8"?>
<!-- Generator: Adobe Illustrator 23.0.5, SVG Export Plug-In . SVG Version: 6.00 Build 0)  -->
<svg version="1.1" id="Слой_1" xmlns="http://www.w3.org/2000/svg" xmlns:xlink="http://www.w3.org/1999/xlink" x="0px" y="0px"
	 viewBox="0 0 1950 950" style="enable-background:new 0 0 1950 950;" xml:space="preserve">
<style type="text/css">
	.st0{display:none;}
	.st1{display:inline;}
	.st2{fill:#141414;}
	.st3{fill:#9ECC00;}
</style>
<g class="st0">
	<g class="st1">
		<path class="st2" d="M1660,306.7l-27-19.1l39.4-59.6l-66.4-20.2l10.1-31.5l65.2,23.6l-1.1-74.3h33.8l-2.3,74.3l66.4-23.6
			l10.1,32.6l-66.4,19.1l40.5,59.6l-28.1,19.1l-38.2-63L1660,306.7z"/>
	</g>
	<g class="st1">
		<g>
			<path class="st2" d="M286,791.6c-8.6,0.1-17.5-0.1-25.9-0.4c-7-0.3-16.2-2.1-22.3-6.3c-8-5.6-12.8-14.9-15.8-23.8
				c-4.7-14.2-5.6-29.7-5.9-44.6c-0.1-13.1,3.6-40.2-5.5-51.1c-8.7-10.4-26.9-11.1-33.8-23.4c-6-10.7,4.1-19.3,11.8-26.3
				c6.8-6.2,16.5-11.3,21.6-19c5.3-8.1,4.1-12.7,3.9-23.1c-0.5-66.5-2.9-133.1-5-199.6c0.1-11.9,0.8-23.4,5.2-34.5
				c3.5-8.8,8.8-17,15.4-23.7c5.7-5.7,14.4-11,22-13.6c8.3-2.8,17-3.8,25.8-4.4c5,0,7.5,0,12.6-0.1c8.9-0.2,17.8,1.6,25.6,4.2
				c8.8,3,15.9,7.3,23.1,13.4c7.1,6,12.6,14.7,16.7,23.4c5,11,6.4,22.4,7.3,34.3c1.5,48.8,3,97.6,4,146.5
				c-17.7,0.2-35.4,0.3-53.1,0.6c-1-46.6-2.5-93.2-3.9-139.8c-0.8-10.2-1.2-21.2-7.2-29.7c-4.2-5.9-9.5-8.9-15.3-8.8
				c-1.9,0-2.8,0-4.8,0c-5.8,0.1-11,3-14.7,8.6c-5.7,8.6-5.7,20.7-5.3,31c2,63.8,4.2,127.6,4.8,191.5c0.1,10.3,1.5,15.5-4,23.4
				c-4.3,6.1-11.7,10.8-17.2,15.7c-7.4,6.6-20.8,16-17.3,27.7c3.5,12.1,24.5,16.1,32.8,24.4c10,10.1,6.9,29.6,7.4,43.3
				c-0.1,12.5,0.4,27.2,6.1,38.5c4,7.8,9.1,11.6,14.9,11.6c1.9,0,2.8,0,4.7,0c5.7,0,11-3.8,15-11.7c5.8-11.3,6.5-25.7,6.4-38.3
				c-0.3-9.6,0.5-22-1.4-31.7c-2.1-10.6-8.6-13.9-17.2-19.4c-19.8-12.5-28.3-19.2-10.2-39c17.9-0.2,35.9-0.3,53.7-0.5
				c-19.7,21.8-7.4,27.5,12.5,41.3c18.8,13.1,15.3,36.9,15.5,58.1c-0.4,15.1-1.3,30.7-6.4,44.4c-3.4,9-7.7,18.2-16.2,24
				c-6.1,4.2-15.5,6-22.7,6.3c-8.3,0.3-17,0.5-25.5,0.4C293.5,791.6,291,791.6,286,791.6z"/>
			<path class="st2" d="M558.4,517.6c-0.2,12.5-0.6,25.6-7.3,36.5c-4.4,7.2-11.1,13.2-19.3,16c8.2,2.1,14.9,8.6,19.5,14.7
				c7,9.1-11.5,25.7-17.2,31.1c-14.3,16.4-13.6,24.6,3.2,37.4c5.4,4.1,13.6,7.7,17.1,14c4.2,7.6,3.3,19.3,4.5,27.6
				c2.2,26.9-0.3,54.3,3.7,81c2,13.3,3.9,14.8,5.4,15.3c-17.6,0-35.2,0-52.7,0c-7-5-6.3-15.7-6.9-23.3c-1.9-24-0.3-49-2.1-73.3
				c-2.6-20.8-2.4-28-20.1-40.1c-15.5-10.6-20.7-18.6-8.8-34.9c1.8-1.8,31.3-32.2,10.1-29.7c-9.4,0.1-18.8,0.2-28.3,0.3
				c-9.7,10.9-43.2,32.5-35.7,50.8c5.6,13.5,26.6,14.7,32.8,27.9c6.4,13.5,3.5,38.2,3.6,52.4c0.1,23.2-0.1,46.5-0.2,69.7
				c-17.6,0-35.2,0-52.9,0c0.2-27.8,0.8-55.7,0.3-83.5c-0.2-8.8-0.2-18.6-1.7-27.4c-2.4-13.6-5.5-16.6-17.3-24.4
				c-12.5-8.2-25.1-15.6-15.5-31.1c6.7-11,19.7-17.5,27.9-27.3c7.1-8.5,5.7-15.4,5.7-26.2c-0.8-89.8-4.4-179.6-6.6-269.4
				c28-0.1,56-0.2,83.9-0.3c18.3-0.1,35.7,6.6,49.4,18.6c16.2,14.3,20.8,34.8,22.1,55.5C556.3,423,557.5,470.3,558.4,517.6z
				 M487.1,551.6c17.5-0.1,18.6-23.9,18.3-36.3c-0.8-43.7-2-87.5-3.2-131.3c-0.7-10.1-1.2-20.7-7.1-29.1c-4.2-6.1-9.7-9.2-16-9.2
				c-8.4,0.1-16.8,0.1-25.2,0.1c1.9,68.7,4.1,137.4,5,206.1C468.3,551.8,477.7,551.7,487.1,551.6z"/>
			<path class="st2" d="M662.3,625.2c-11,15.2,9.6,25.9,18.6,33.9c9.6,8.6,10.2,17.2,11.5,29.5c3.8,33.7,1.9,68.5,1.9,102.5
				c-17.5,0-35,0-52.6,0c-0.1-34.1,1.8-68.8-1.8-102.7c-1.3-12.4-1.9-20.7-11.7-29.2c-8.9-7.7-30.3-18.4-19.3-33.6
				c5.7-15.6,24-24.3,23.7-42.5c-0.2-13.5-5.2-28.8-7.7-42c-4.5-24.3-9.2-48.5-13.9-72.7c-10.9-55.8-22.3-111.4-33.2-167.1
				c17.5-0.1,35-0.1,52.5-0.2c12,72.1,24.7,144,36.4,216.1c0.6,0,0.9,0,1.6,0c9.6-72.1,18.3-144.2,27.8-216.3
				c17.5-0.1,35-0.1,52.5-0.2c-8.9,55.5-17.5,111.2-26.2,166.7c-4.1,25.8-8.2,51.5-12.4,77.2c-2,12.3-2.3,28.5-6.8,40.2
				C696.5,602.2,674.9,613,662.3,625.2z"/>
			<path class="st2" d="M860.6,300.4c18.2-0.1,35.6,6.4,49.2,18.4c16,14.2,20.4,34.3,21.4,54.8c0.8,57.8,1.5,115.6,1.7,173.4
				c0.2,20.7-4.6,37.8-23.8,47.6c-17.6,9.1-37.8,12.7-57.5,12.9c-11.3,0.1-22.6,0.2-33.8,0.3c-13.3,12.9-25,24.5-10.5,41
				c10.8,12.3,19.5,14.4,21.9,31.9c5.1,36.4,3.3,73.8,3.5,110.5c-17.5,0-35,0-52.6,0c-0.1-27.7-0.1-55.3-0.5-83
				c-0.2-8.8-1.1-17.2-2.7-25.9c-2.4-13.9-4.3-17.1-14.6-26.7c-11.4-10.7-20.7-18.1-11.1-33.6c7-11.3,19.3-17.2,25.7-29.2
				c4.6-8.7,3.8-16.4,3.7-26.2c-0.3-88.6-2.6-177.3-3.9-266C804.6,300.5,832.6,300.5,860.6,300.4z M878.2,381.7
				c-0.6-10-0.9-20.4-6.7-28.8c-4.1-6-9.5-9.1-15.8-9.1c-8.4,0.1-16.7,0.1-25.1,0.1c1.2,74.7,2.6,149.3,2.8,224
				c9.3-0.1,18.7-0.2,28-0.3c17.2-0.1,18.7-23.4,18.5-35.9C879.7,481.7,879,431.7,878.2,381.7z"/>
			<path class="st2" d="M1115.2,342.1c-17.5,0.1-35,0.2-52.4,0.2c0.3,44.2,0.8,88.4,1,132.5c0.1,18.6,0.2,37.2,0.3,55.9
				c0.1,17.2,2.3,36.8-1,53.6c-3.9,19.7-28.6,27.6-30.6,47.2c-1.7,16.8,16.7,22.5,22.7,35.4c6.6,14,5.9,37.1,6,52.1
				c0.2,24.1,0.8,48.2,1,72.2c-17.5,0-35,0-52.6,0c-0.2-24.1-0.7-48.2-0.9-72.2c-0.1-15,0.8-38.3-6-52.2
				c-6.2-12.8-25.1-18.3-23.6-35c1.7-19.3,26.7-27.6,31-46.8c3.7-16.6,1.2-36.7,1.1-53.7c-0.1-18.6-0.2-37.3-0.3-55.9
				c-0.3-44.3-0.9-88.5-1.3-132.7c-17.5,0.1-35,0.2-52.4,0.2c-0.2-14.3-0.3-28.5-0.4-42.8c52.7-0.2,105.5-0.3,158.3-0.5
				C1115.1,313.7,1115.2,327.9,1115.2,342.1z"/>
			<path class="st2" d="M1211.7,791.6c-8.5,0.1-17.3-0.1-25.7-0.5c-7.1-0.3-16.4-2.4-22.3-6.7c-8.5-6.3-12.8-15.6-16.4-24.9
				c-5.2-13.4-6.3-28.8-6.8-43.3c-0.1-17.5-0.5-40.3-10-55.3c-7.9-12.6-22.2-18.6-15.5-35.4c3.9-9.9,13-14.4,19-22.3
				c5-6.6,8.6-12.9,9.8-21.8c2.4-17.3,0.1-36.4,0-53.9c-0.1-76-0.8-152-1.1-227.9c17.8-0.1,35.5-0.1,53.3-0.2
				c0.2,74.6,0.8,149.2,0.8,223.8c0,16.5,0.1,33,0,49.5c-0.1,8.2-0.9,19.7-5.6,26.9c-5.7,8.9-17.3,12.9-21.9,23.5
				c-6.3,14.3,0.5,22.2,9.7,33.1c12,14,13.6,34.6,14.2,52.6c0.2,11.5,1.1,25,6.7,35.4c4.3,7.9,9.3,11.7,15.1,11.7c1.9,0,2.8,0,4.7,0
				c5.7,0,10.8-4,14.6-11.8c5-10.4,5.9-23.6,5.7-35.2c-0.5-17.9-2.4-38.8-14-52.7c-9.1-11-15.5-19.1-9.2-33.4
				c4.7-10.6,16.5-14.7,22.1-23.7c4.4-7.1,4.9-19,4.9-27c0.1-16.5,0.1-33,0.1-49.5c-0.1-74.5-0.4-149-0.6-223.4
				c17.8-0.1,35.5-0.1,53.3-0.2c0.1,75.6,0.4,151.2,0.3,226.7c0,17.8,1.3,36-0.1,53.6c-0.8,9.4-2.7,15-7.8,22.2
				c-5.9,8.3-15.3,12.9-19.4,23c-6.9,16.9,6,23.1,13.5,36.5c8.4,15.1,9.5,37.8,9.7,55.2c0.3,14.4-1,29.9-5.4,43.1
				c-3.1,9.3-7.1,18.8-15.4,25.2c-5.9,4.5-15.4,6.5-22.5,6.8c-8.2,0.3-16.9,0.5-25.4,0.5C1219.2,791.6,1216.7,791.6,1211.7,791.6z"
				/>
			<path class="st2" d="M1434.2,507.6c0-44.6,0-89.2,0-133.8c-0.4-9.8-0.5-20.4-6.3-28.6c-4-5.6-9.2-8.5-15-8.5c-1.9,0-2.8,0-4.8,0
				c-5.8,0.1-11.1,2.8-15,8.2c-5.9,8.1-6.3,19.8-6.3,29.8c0,22.1,0.1,44.2,0.1,66.3c0,21.7,4.6,43.7,15.7,62.4
				c5,8.5,6.8,9.5,34.6,50.9c4.5,6.8,9.1,13.7,11.5,24c3.1,13.1-0.1,20.3,0.3,31.4c0.3,10,3.6,24.1,16.9,41.2
				c13.7,17.5,16.9,43,17.2,65.2c0.3,14.3-0.6,29.6-4.7,42.8c-2.9,9.4-6.8,19.1-15.3,25.4c-6,4.4-15.4,6.6-22.6,6.8
				c-8.5,0.3-17.3,0.5-26,0.5c-4.4,0-6.6,0-11,0c-8.6,0-17.5-0.1-25.9-0.5c-7.4-0.3-17-2.5-23.3-6.8c-9-6.1-13.7-15.6-17.5-25.2
				c-5.3-13.1-6.8-28.7-7.2-43c-0.2-17.7-1.6-42.9-11.7-57.8c-13.7-20.1-17.4-28.4,0.2-49.6c16.5-0.2,32.9-0.3,49.4-0.5
				c-15.5,18.8-17.1,28.5-2.8,47.6c9.9,13.4,13.1,36.4,13.6,53.1c0.2,11.4,2.3,25,7.7,34.8c3.1,5.5,10.6,12,17.6,11.7
				c1.6,0,2.4,0,3.9,0c6.8,0,12.6-4,16.5-11.8c5.2-10.1,6.1-23.1,5.9-34.6c1-12.4-4.5-44-13-52.8c-10.4-12.3-19.5-26.7-17.2-43.6
				c1.5-11.1,7.5-13.7,1.7-24.1c-4.9-8.7-11.3-16.8-17.3-24.7c-12.4-16.4-24-33.4-34.5-51c-11.5-19.3-15.1-41-15.7-63.2
				c-0.1-27.3-0.1-54.7-0.1-82c0.5-11.5,1.5-22.6,6.3-33.2c3.8-8.6,9.5-17,16.5-22.8c6.7-5.5,14.3-10.3,22.8-13.1
				c8.4-2.7,17.1-3.7,26-4.2c3.1,0,4.7,0,7.9,0c8.2-0.2,17.6,1.6,25.2,4c8.5,2.7,16.1,7.5,22.9,12.9c7,5.7,12.5,14,16.1,22.6
				c4.5,10.6,5.5,21.6,5.9,33c0,46.8,0,93.5,0,140.2C1466.7,507.2,1450.5,507.4,1434.2,507.6z"/>
		</g>
	</g>
</g>
<g class="st0">
	<g class="st1">
		<path class="st3" d="M531.7,431.3c-0.7-9.9-1.2-20.2-6.9-28.6c-4.1-6-9.5-9-15.7-9c-8.2,0.1-16.5,0.1-24.7,0.1
			c1.8,67.3,4,134.7,4.9,202c9.2-0.1,18.4-0.2,27.7-0.3c17.1-0.1,18.2-23.4,17.9-35.6C534,517.1,532.9,474.3,531.7,431.3z"/>
		<path class="st3" d="M3.3,225.4v723.8h1697.6V225.4H3.3z M401.4,757.2c-0.4,14.8-1.3,30.1-6.3,43.5c-3.3,8.8-7.6,17.8-15.9,23.5
			c-6,4.1-15.3,5.9-22.3,6.2c-8.1,0.3-16.7,0.5-25,0.4c-4.9,0-7.4,0-12.3,0c-8.4,0.1-17.1-0.1-25.3-0.4c-6.9-0.3-15.9-2-21.8-6.1
			c-7.8-5.5-12.5-14.6-15.5-23.4c-4.6-13.9-5.5-29.1-5.7-43.7c-0.1-12.8,3.5-39.4-5.3-50c-8.5-10.2-26.4-10.9-33.1-23
			c-5.9-10.5,4-18.9,11.7-25.8c6.7-6.1,16.2-11,21.2-18.6c5.2-7.9,4-12.4,3.9-22.7c-0.5-65.2-2.8-130.4-4.9-195.6
			c0.1-11.7,0.7-22.9,5.1-33.8c3.5-8.6,8.6-16.7,15.1-23.2c5.6-5.6,14.2-10.8,21.6-13.4c8.1-2.8,16.7-3.8,25.3-4.3
			c4.9,0,7.4,0,12.3-0.1c8.7-0.2,17.4,1.5,25.1,4.1c8.6,2.9,15.6,7.1,22.6,13.1c6.9,6,12.4,14.4,16.4,23c4.9,10.7,6.3,21.9,7.2,33.6
			c1.4,47.9,3,95.7,3.9,143.6c-17.3,0.2-34.7,0.3-52,0.6c-1-45.7-2.4-91.3-3.9-137c-0.7-10-1.1-20.8-7-29.1
			c-4.1-5.7-9.3-8.7-14.9-8.6c-1.9,0-2.8,0-4.7,0c-5.7,0.1-10.8,2.9-14.4,8.4c-5.6,8.4-5.6,20.3-5.2,30.4
			c2,62.5,4.1,125.1,4.7,187.6c0.1,10.1,1.5,15.2-3.9,23c-4.2,6-11.4,10.6-16.9,15.4c-7.3,6.5-20.3,15.6-17.1,27.1
			c3.5,11.9,24,15.8,32.1,23.9c9.8,9.9,6.8,29,7.3,42.4c-0.1,12.3,0.4,26.7,6,37.7c3.9,7.7,8.9,11.4,14.6,11.4c1.9,0,2.8,0,4.6,0
			c5.6,0,10.8-3.8,14.7-11.4c5.7-11,6.4-25.2,6.3-37.6c-0.3-9.4,0.5-21.6-1.4-31c-2-10.3-8.4-13.6-16.9-19
			c-19.4-12.3-27.7-18.8-9.9-38.2c17.6-0.2,35.1-0.3,52.6-0.5c-19.3,21.4-7.2,26.9,12.2,40.5C404.7,713.1,401.3,736.4,401.4,757.2z
			 M544.4,830.4c-6.8-4.9-6.2-15.3-6.8-22.8c-1.8-23.5-0.3-48-2-71.8c-2.6-20.4-2.4-27.5-19.7-39.3c-15.2-10.4-20.3-18.2-8.6-34.2
			c1.8-1.8,30.7-31.5,9.9-29.1c-9.2,0.1-18.4,0.2-27.7,0.3c-9.5,10.7-42.4,31.9-35,49.8c5.5,13.2,26.1,14.4,32.2,27.3
			c6.3,13.2,3.5,37.5,3.5,51.4c0.1,22.7-0.1,45.5-0.2,68.3c-17.3,0-34.6,0-51.8,0c0.2-27.3,0.7-54.6,0.3-81.8
			c-0.2-8.6-0.2-18.3-1.7-26.9c-2.4-13.3-5.4-16.3-17-23.9c-12.3-8-24.6-15.3-15.2-30.5c6.6-10.7,19.3-17.2,27.3-26.8
			c6.9-8.3,5.6-15.1,5.6-25.7c-0.7-88-4.3-176-6.4-264c27.5-0.1,54.8-0.2,82.3-0.3c18-0.1,35,6.4,48.4,18.3
			c15.9,14,20.4,34.1,21.7,54.4c1.2,46.3,2.4,92.7,3.2,139c-0.2,12.3-0.6,25.1-7.2,35.8c-4.3,7-10.9,12.9-18.9,15.6
			c8.1,2,14.6,8.4,19.1,14.4c6.8,8.9-11.3,25.2-16.9,30.5c-14,16.1-13.3,24.1,3.2,36.6c5.3,4,13.3,7.6,16.7,13.7
			c4.1,7.4,3.2,18.9,4.4,27.1c2.2,26.4-0.3,53.2,3.6,79.4c2,13,3.8,14.5,5.3,15C578.9,830.4,561.7,830.4,544.4,830.4z M735.3,588.8
			c-2,12-2.3,27.9-6.7,39.4c-6.5,17-27.7,27.6-40,39.6c-10.7,14.9,9.4,25.5,18.2,33.3c9.4,8.5,9.9,16.9,11.3,28.9
			c3.8,33,1.8,67.1,1.9,100.4c-17.2,0-34.3,0-51.5,0c-0.1-33.4,1.8-67.4-1.8-100.6c-1.3-12.2-1.8-20.3-11.5-28.7
			c-8.7-7.5-29.7-18.1-18.9-32.9c5.6-15.3,23.5-23.8,23.2-41.6c-0.2-13.2-5.1-28.2-7.5-41.2c-4.4-23.8-9-47.5-13.6-71.3
			c-10.7-54.6-21.8-109.2-32.5-163.8c17.2-0.1,34.3-0.1,51.5-0.2c11.8,70.6,24.2,141.1,35.7,211.8c0.6,0,0.9,0,1.5,0
			c9.4-70.7,18-141.4,27.2-212c17.2-0.1,34.3-0.1,51.5-0.2c-8.8,54.5-17.1,108.9-25.7,163.4C743.5,538.4,739.5,563.7,735.3,588.8z
			 M930.4,637.7c-17.3,8.9-37.1,12.4-56.3,12.7c-11,0.1-22.1,0.2-33.2,0.3c-13,12.6-24.5,24-10.3,40.1c10.6,12,19.1,14.1,21.5,31.2
			c5,35.6,3.2,72.3,3.4,108.3c-17.2,0-34.4,0-51.6,0c-0.1-27.1-0.1-54.2-0.5-81.3c-0.2-8.6-1.1-16.9-2.6-25.4
			c-2.4-13.6-4.2-16.7-14.3-26.2c-11.1-10.5-20.3-17.7-10.9-32.9c6.9-11,18.9-16.8,25.2-28.6c4.5-8.5,3.7-16.1,3.6-25.6
			c-0.3-86.9-2.6-173.8-3.8-260.7c27.4-0.1,54.8-0.2,82.2-0.3c17.8-0.1,34.8,6.3,48.2,18c15.7,13.9,20,33.6,21,53.7
			c0.7,56.6,1.5,113.3,1.7,169.9C953.9,611.4,949.2,628.1,930.4,637.7z M1081.3,627.7c-3.8,19.4-28,27.1-30,46.2
			c-1.6,16.4,16.4,22,22.3,34.7c6.4,13.7,5.7,36.3,5.9,51c0.2,23.6,0.7,47.2,1,70.8c-17.2,0-34.4,0-51.6,0
			c-0.2-23.6-0.7-47.2-0.9-70.8c-0.1-14.7,0.7-37.6-5.9-51.2c-6.1-12.5-24.6-17.9-23.1-34.3c1.7-18.9,26.2-27,30.4-45.8
			c3.6-16.3,1.1-35.9,1.1-52.6c-0.1-18.3-0.2-36.5-0.3-54.8c-0.3-43.4-0.9-86.7-1.3-130.1c-17.1,0.1-34.3,0.2-51.4,0.2
			c-0.2-14-0.3-27.9-0.4-41.9c51.7-0.2,103.4-0.3,155.1-0.5c0.1,13.9,0.2,27.8,0.2,41.7c-17.2,0.1-34.3,0.2-51.4,0.2
			c0.3,43.3,0.7,86.6,1,129.9c0.1,18.2,0.2,36.5,0.3,54.7C1082.4,592,1084.6,611.2,1081.3,627.7z M1310.3,622.8
			c-0.7,9.2-2.6,14.7-7.6,21.7c-5.7,8.1-14.9,12.6-19,22.5c-6.8,16.6,5.9,22.7,13.2,35.8c8.2,14.8,9.3,37.1,9.5,54.1
			c0.3,14.2-1,29.3-5.3,42.2c-3,9.1-6.9,18.5-15.1,24.7c-5.8,4.4-15.1,6.4-22.1,6.7c-8.1,0.3-16.6,0.5-24.8,0.5c-4.9,0-7.3,0-12.2,0
			c-8.4,0.1-17-0.1-25.2-0.5c-6.9-0.3-16-2.3-21.8-6.6c-8.3-6.1-12.5-15.3-16.1-24.5c-5.1-13.1-6.2-28.2-6.7-42.5
			c-0.1-17.1-0.5-39.5-9.8-54.2c-7.8-12.3-21.8-18.2-15.2-34.7c3.8-9.7,12.7-14.2,18.6-21.9c4.9-6.4,8.4-12.7,9.6-21.3
			c2.3-17,0.1-35.7,0-52.9c-0.1-74.5-0.8-148.9-1.1-223.4c17.4-0.1,34.8-0.1,52.2-0.2c0.2,73.1,0.7,146.2,0.8,219.3
			c0,16.2,0.1,32.4,0,48.5c-0.1,8.1-0.9,19.3-5.5,26.4c-5.6,8.8-16.9,12.6-21.5,23c-6.1,14,0.5,21.8,9.5,32.4
			c11.7,13.7,13.4,33.9,13.9,51.6c0.2,11.3,1.1,24.5,6.6,34.7c4.2,7.7,9.2,11.5,14.8,11.5c1.8,0,2.8,0,4.6,0
			c5.6,0,10.6-3.9,14.3-11.5c4.9-10.2,5.7-23.1,5.6-34.6c-0.5-17.5-2.3-38-13.7-51.7c-8.9-10.8-15.2-18.7-9-32.7
			c4.6-10.5,16.1-14.4,21.7-23.2c4.3-7,4.8-18.6,4.8-26.5c0.1-16.1,0.1-32.3,0.1-48.5c-0.1-73-0.4-146-0.6-218.9
			c17.4-0.1,34.8-0.1,52.2-0.2c0.1,74.1,0.4,148.1,0.3,222.2C1310.4,587.6,1311.7,605.5,1310.3,622.8z M1488.2,798.8
			c-2.8,9.2-6.7,18.7-15,24.8c-5.9,4.3-15.1,6.4-22.2,6.7c-8.3,0.3-17,0.5-25.5,0.5c-4.3,0-6.5,0-10.8,0c-8.5,0-17.1-0.1-25.4-0.5
			c-7.3-0.3-16.7-2.4-22.8-6.7c-8.8-6-13.4-15.3-17.2-24.7c-5.2-12.8-6.7-28.1-7-42.2c-0.2-17.3-1.5-42.1-11.5-56.7
			c-13.4-19.7-17.1-27.9,0.2-48.6c16.1-0.2,32.2-0.3,48.4-0.5c-15.2,18.4-16.8,27.9-2.8,46.7c9.7,13.1,12.8,35.6,13.3,52.1
			c0.2,11.1,2.2,24.5,7.6,34c3,5.4,10.3,11.8,17.2,11.5c1.5,0,2.3,0,3.9,0c6.7,0,12.3-3.9,16.2-11.5c5.1-9.9,6-22.7,5.8-33.9
			c1-12.2-4.4-43.1-12.7-51.7c-10.2-12-19.1-26.2-16.9-42.7c1.5-10.9,7.4-13.4,1.6-23.6c-4.8-8.5-11.1-16.4-16.9-24.2
			c-12.2-16.1-23.5-32.7-33.8-50c-11.3-18.9-14.8-40.2-15.4-62c-0.1-26.8-0.1-53.6-0.1-80.4c0.5-11.3,1.4-22.1,6.1-32.6
			c3.8-8.4,9.3-16.7,16.1-22.3c6.5-5.4,14-10.1,22.3-12.8c8.2-2.7,16.8-3.6,25.5-4.1c3.1,0,4.6,0,7.7,0c8-0.2,17.2,1.5,24.7,3.9
			c8.3,2.7,15.8,7.3,22.4,12.7c6.9,5.6,12.3,13.7,15.8,22.1c4.4,10.4,5.3,21.1,5.8,32.3c0,45.8,0,91.6,0,137.4
			c-16,0.2-31.9,0.3-47.9,0.5c0-43.7,0-87.4,0-131.1c-0.4-9.6-0.5-20-6.2-28c-3.9-5.5-9-8.4-14.7-8.3c-1.9,0-2.8,0-4.7,0
			c-5.7,0.1-10.9,2.8-14.7,8.1c-5.7,8-6.1,19.4-6.2,29.2c0,21.7,0.1,43.3,0.1,64.9c0,21.3,4.5,42.8,15.4,61.1
			c4.9,8.3,6.7,9.3,33.9,49.9c4.4,6.7,8.9,13.5,11.3,23.5c3,12.9-0.1,19.9,0.3,30.7c0.3,9.8,3.5,23.6,16.6,40.4
			c13.5,17.2,16.6,42.2,16.8,63.8C1493.2,770.8,1492.2,785.8,1488.2,798.8z"/>
		<path class="st3" d="M900.1,429.1c-0.6-9.8-0.9-20-6.5-28.2c-4-5.9-9.3-8.9-15.5-8.9c-8.2,0.1-16.4,0.1-24.6,0.1
			c1.1,73.2,2.6,146.3,2.8,219.5c9.2-0.1,18.3-0.2,27.4-0.3c16.9-0.1,18.4-23,18.1-35.1C901.6,527.2,900.9,478.2,900.1,429.1z"/>
	</g>
	<g class="st1">
		<path class="st3" d="M1795.3,228.3l-26.4-18.7l38.5-58.4l-65-19.8l9.9-30.9l63.9,23.1l-1.1-72.7h33l-2.2,72.7l65-23.1l9.9,31.9
			l-65,18.7l39.7,58.4l-27.6,18.7l-37.5-61.7L1795.3,228.3z"/>
	</g>
	<g>
		<g class="st1">
			<path class="st3" d="M585.4,695c-4.9,0-10.1-0.1-14.9-0.2c-4-0.2-9.3-1.2-12.8-3.6c-4.6-3.2-7.3-8.6-9-13.7
				c-2.7-8.1-3.2-17.1-3.4-25.7c-0.1-7.6,2.1-23.1-3.1-29.4c-5-6-15.5-6.4-19.4-13.5c-3.5-6.1,2.3-11.1,6.8-15.1
				c3.9-3.6,9.5-6.5,12.4-10.9c3.1-4.7,2.3-7.3,2.3-13.3c-0.3-38.3-1.6-76.6-2.9-114.8c0.1-6.8,0.4-13.4,3-19.8
				c2-5.1,5.1-9.8,8.9-13.6c3.3-3.3,8.3-6.4,12.7-7.8c4.8-1.6,9.8-2.2,14.9-2.5c2.9,0,4.3,0,7.2,0c5.1-0.1,10.2,0.9,14.7,2.4
				c5.1,1.7,9.2,4.2,13.3,7.7s7.3,8.5,9.6,13.5c2.9,6.3,3.7,12.9,4.2,19.7c0.9,28.1,1.8,56.2,2.3,84.3c-10.2,0.1-20.3,0.2-30.5,0.3
				c-0.6-26.8-1.4-53.7-2.3-80.4c-0.4-5.9-0.7-12.2-4.1-17.1c-2.4-3.4-5.5-5.1-8.8-5.1c-1.1,0-1.6,0-2.7,0c-3.4,0-6.3,1.7-8.5,4.9
				c-3.3,4.9-3.2,11.9-3.1,17.8c1.2,36.7,2.4,73.4,2.7,110.2c0.1,5.9,0.9,8.9-2.3,13.5c-2.4,3.5-6.7,6.2-9.9,9
				c-4.3,3.8-12,9.2-10,15.9c2,7,14.1,9.3,18.9,14.1c5.8,5.8,4,17,4.3,24.9c-0.1,7.2,0.2,15.7,3.5,22.2c2.3,4.5,5.2,6.7,8.5,6.7
				c1.1,0,1.6,0,2.7,0c3.3,0,6.4-2.2,8.6-6.7c3.3-6.5,3.8-14.8,3.7-22.1c-0.2-5.6,0.3-12.7-0.8-18.2c-1.2-6.1-4.9-8-9.9-11.1
				c-11.4-7.2-16.3-11.1-5.9-22.4c10.3-0.1,20.6-0.2,30.9-0.3c-11.4,12.6-4.3,15.8,7.2,23.8c10.9,7.6,8.8,21.2,8.9,33.5
				c-0.2,8.7-0.7,17.7-3.7,25.6c-1.9,5.2-4.4,10.5-9.3,13.8c-3.5,2.4-9,3.5-13.1,3.6c-4.8,0.2-9.8,0.3-14.7,0.2
				C589.7,695,588.3,695,585.4,695z"/>
			<path class="st3" d="M742.1,537.3c-0.1,7.2-0.4,14.7-4.2,21c-2.5,4.1-6.4,7.6-11.1,9.2c4.7,1.2,8.5,4.9,11.3,8.5
				c4,5.2-6.6,14.8-9.9,17.8c-8.2,9.4-7.8,14.2,1.9,21.5c3.1,2.4,7.8,4.4,9.8,8.1c2.4,4.4,1.9,11.1,2.6,15.9
				c1.3,15.5-0.2,31.3,2.2,46.6c1.2,7.6,2.2,8.5,3.1,8.8c-10.1,0-20.2,0-30.3,0c-4-2.9-3.6-9-4-13.4c-1.1-13.8-0.2-28.2-1.2-42.2
				c-1.5-12-1.4-16.1-11.5-23.1c-8.9-6.1-11.9-10.7-5.1-20.1c1-1.1,18-18.5,5.8-17.1c-5.4,0.1-10.9,0.2-16.3,0.2
				c-5.6,6.3-24.9,18.7-20.5,29.2c3.2,7.7,15.3,8.5,18.9,16c3.7,7.7,2,22,2.1,30.2c0.1,13.4-0.1,26.7-0.1,40.1
				c-10.1,0-20.3,0-30.4,0c0.1-16,0.5-32.1,0.2-48.1c-0.1-5.1-0.1-10.7-1-15.8c-1.4-7.8-3.2-9.5-10-14c-7.2-4.7-14.4-9-9-17.8
				c3.9-6.3,11.4-10.1,16-15.7c4.1-4.9,3.3-8.9,3.2-15.1c-0.4-51.7-2.5-103.3-3.8-155c16.1-0.1,32.2-0.1,48.3-0.2
				c10.5-0.1,20.6,3.8,28.4,10.7c9.3,8.2,12,20,12.7,31.9C740.9,482.9,741.7,510.1,742.1,537.3z M701.2,556.8
				c10.1-0.1,10.7-13.8,10.5-20.9c-0.5-25.2-1.1-50.4-1.8-75.5c-0.4-5.8-0.7-11.9-4.1-16.8c-2.4-3.5-5.6-5.3-9.2-5.3
				c-4.8,0-9.7,0.1-14.5,0.1c1.1,39.5,2.3,79.1,2.9,118.6C690.4,557,695.8,556.9,701.2,556.8z"/>
			<path class="st3" d="M802,599.2c-6.3,8.8,5.6,14.9,10.7,19.6c5.6,4.9,5.9,9.9,6.7,17c2.2,19.4,1.1,39.4,1.1,58.9
				c-10.1,0-20.2,0-30.2,0c0-19.6,1-39.6-1-59.1c-0.7-7.2-1-11.9-6.8-16.8c-5.1-4.4-17.4-10.6-11.1-19.3c3.3-9,13.8-14,13.6-24.4
				c-0.2-7.8-3-16.6-4.4-24.2c-2.6-14-5.3-27.9-8-41.8c-6.3-32.1-12.8-64.1-19.1-96.2c10.1-0.1,20.1-0.1,30.2-0.1
				c6.9,41.4,14.2,82.9,20.9,124.4c0.3,0,0.5,0,0.9,0c5.5-41.4,10.5-83,16-124.5c10.1-0.1,20.1-0.1,30.2-0.1
				c-5.2,31.9-10.1,63.9-15.1,95.9c-2.3,14.8-4.7,29.6-7.2,44.4c-1.2,7.1-1.3,16.4-3.9,23.1C821.6,585.9,809.2,592.1,802,599.2z"/>
			<path class="st3" d="M916,412.3c10.5-0.1,20.5,3.6,28.3,10.6c9.2,8.1,11.7,19.8,12.3,31.5c0.4,33.3,0.9,66.5,1,99.8
				c0.1,11.9-2.7,21.8-13.7,27.4c-10.1,5.2-21.8,7.3-33.1,7.4c-6.5,0.1-13,0.1-19.5,0.2c-7.7,7.4-14.4,14.1-6.1,23.5
				c6.3,7,11.2,8.2,12.6,18.4c3,20.9,1.9,42.5,2,63.6c-10.1,0-20.2,0-30.3,0c-0.1-15.9-0.1-31.8-0.3-47.7c-0.1-5.1-0.7-9.9-1.5-14.9
				c-1.4-8-2.4-9.8-8.4-15.4c-6.5-6.1-11.9-10.4-6.4-19.3c4-6.5,11.1-9.9,14.8-16.8c2.7-5,2.2-9.4,2.2-15.1
				c-0.2-51-1.5-102-2.2-153.1C883.8,412.4,899.9,412.4,916,412.3z M926.2,459.1c-0.3-5.7-0.6-11.7-3.9-16.5
				c-2.4-3.5-5.5-5.2-9.1-5.2c-4.8,0-9.6,0.1-14.4,0.1c0.7,43,1.5,85.9,1.6,128.9c5.3-0.1,10.7-0.1,16.1-0.2
				c9.9-0.1,10.7-13.5,10.6-20.6C927,516.7,926.6,487.8,926.2,459.1z"/>
			<path class="st3" d="M1062.6,436.3c-10.1,0.1-20.1,0.1-30.2,0.2c0.2,25.4,0.5,50.8,0.6,76.2c0.1,10.7,0.1,21.4,0.2,32.1
				c0.1,9.9,1.3,21.1-0.6,30.9c-2.2,11.4-16.5,15.9-17.6,27.1c-1,9.6,9.6,12.9,13.1,20.3c3.8,8,3.4,21.3,3.5,30
				c0.1,13.9,0.5,27.7,0.6,41.5c-10.1,0-20.2,0-30.3,0c-0.1-13.9-0.4-27.7-0.5-41.5c-0.1-8.6,0.5-22.1-3.5-30.1
				c-3.6-7.3-14.4-10.5-13.6-20.1c1-11.1,15.4-15.9,17.8-26.9c2.1-9.5,0.7-21.1,0.6-30.9c-0.1-10.7-0.1-21.5-0.2-32.2
				c-0.2-25.5-0.5-50.9-0.7-76.4c-10.1,0.1-20.1,0.1-30.2,0.2c-0.1-8.2-0.2-16.4-0.2-24.6c30.4-0.1,60.7-0.2,91.1-0.3
				C1062.5,420,1062.5,428.1,1062.6,436.3z"/>
			<path class="st3" d="M1118.1,695c-4.9,0.1-10-0.1-14.8-0.3c-4.1-0.2-9.4-1.4-12.8-3.9c-4.9-3.6-7.3-9-9.4-14.4
				c-3-7.7-3.6-16.5-3.9-24.9c-0.1-10.1-0.3-23.2-5.7-31.8c-4.6-7.2-12.8-10.7-8.9-20.4c2.2-5.7,7.4-8.3,11-12.8
				c2.9-3.8,4.9-7.4,5.6-12.5c1.4-9.9,0.1-21,0-31c-0.1-43.7-0.5-87.4-0.6-131.2c10.2-0.1,20.4-0.1,30.6-0.1
				c0.1,42.9,0.4,85.8,0.5,128.8c0,9.5,0.1,19,0,28.5c-0.1,4.7-0.5,11.3-3.2,15.5c-3.3,5.1-9.9,7.4-12.6,13.5
				c-3.6,8.2,0.3,12.8,5.6,19c6.9,8,7.8,19.9,8.1,30.3c0.1,6.7,0.6,14.4,3.9,20.3c2.4,4.5,5.4,6.8,8.7,6.8c1.1,0,1.6,0,2.7,0
				c3.3,0,6.3-2.3,8.4-6.8c2.9-6,3.4-13.6,3.3-20.3c-0.3-10.3-1.4-22.3-8-30.4c-5.2-6.4-8.9-11-5.3-19.2c2.7-6.1,9.5-8.5,12.7-13.6
				c2.6-4.1,2.8-11,2.8-15.6c0.1-9.5,0.1-19,0-28.5c0-42.9-0.2-85.7-0.3-128.6c10.2-0.1,20.4-0.1,30.6-0.1
				c0.1,43.5,0.2,87,0.2,130.4c0,10.2,0.7,20.7-0.1,30.9c-0.4,5.4-1.5,8.6-4.5,12.7c-3.4,4.8-8.8,7.4-11.1,13.2
				c-4,9.8,3.5,13.3,7.7,21c4.8,8.7,5.5,21.8,5.6,31.7c0.2,8.3-0.6,17.2-3.1,24.8c-1.8,5.3-4.1,10.9-8.9,14.5
				c-3.4,2.6-8.9,3.8-13,3.9c-4.7,0.2-9.7,0.3-14.6,0.3C1122.4,695,1121,695,1118.1,695z"/>
			<path class="st3" d="M1246.1,531.5c0-25.6,0-51.3,0-77c-0.2-5.6-0.3-11.8-3.6-16.4c-2.3-3.2-5.3-4.9-8.6-4.9c-1.1,0-1.6,0-2.7,0
				c-3.4,0-6.4,1.6-8.6,4.8c-3.4,4.7-3.6,11.4-3.6,17.2c0,12.7,0,25.4,0.1,38.1c0,12.5,2.6,25.1,9,35.9c2.9,4.9,3.9,5.5,19.9,29.3
				c2.6,3.9,5.2,7.9,6.6,13.8c1.8,7.6-0.1,11.7,0.2,18.1c0.2,5.7,2,13.9,9.8,23.7c7.9,10.1,9.7,24.8,9.9,37.5
				c0.2,8.2-0.3,17.1-2.7,24.7c-1.6,5.4-3.9,11-8.8,14.6c-3.5,2.6-8.9,3.8-13,3.9c-4.9,0.2-9.9,0.3-14.9,0.3c-2.6,0-3.8,0-6.3,0
				c-4.9,0-10.1-0.1-14.9-0.3c-4.3-0.2-9.8-1.4-13.4-3.9c-5.2-3.5-7.8-9-10.1-14.5c-3-7.6-3.9-16.5-4.1-24.8
				c-0.1-10.2-0.9-24.7-6.8-33.3c-7.9-11.5-10-16.4,0.1-28.5c9.4-0.1,18.9-0.2,28.4-0.2c-8.9,10.9-9.8,16.4-1.6,27.4
				c5.7,7.7,7.5,20.9,7.8,30.6c0.2,6.5,1.3,14.4,4.4,20c1.8,3.2,6.1,6.9,10.1,6.8c0.9,0,1.4,0,2.3,0c3.9,0,7.2-2.3,9.5-6.8
				c3-5.8,3.5-13.3,3.4-19.9c0.6-7.2-2.6-25.3-7.4-30.4c-6-7-11.3-15.4-9.9-25.1c0.9-6.4,4.3-7.8,1-13.9c-2.8-5-6.5-9.6-9.9-14.2
				c-7.2-9.4-13.8-19.2-19.8-29.3c-6.6-11.1-8.7-23.6-9-36.4c0-15.7-0.1-31.5-0.1-47.2c0.3-6.7,0.9-13,3.6-19.1
				c2.2-4.9,5.5-9.8,9.5-13.1c3.9-3.2,8.2-6,13.1-7.6c4.8-1.6,9.8-2.1,14.9-2.4c1.8,0,2.7,0,4.5,0c4.7-0.1,10.1,0.9,14.5,2.3
				c4.9,1.5,9.3,4.3,13.1,7.4c4,3.3,7.2,8.1,9.3,13c2.6,6.1,3.1,12.4,3.4,19c0,26.9,0,53.8,0,80.7
				C1264.8,531.3,1255.4,531.4,1246.1,531.5z"/>
		</g>
	</g>
</g>
<g>
	<g>
		<path class="st3" d="M1670.2,355l-26.6-18.7l38.8-58.2l-65.4-19.8l9.9-30.8l64.2,23l-1.1-72.6h33.3l-2.3,72.6l65.4-23l9.9,31.8
			L1731,278l39.9,58.2l-27.7,18.7l-37.6-61.5L1670.2,355z"/>
	</g>
	<g>
		<g>
			<path class="st3" d="M317.3,828.6c-8.5,0.1-17.2-0.1-25.5-0.4c-6.9-0.3-16-2.1-22-6.2c-7.9-5.5-12.6-14.6-15.6-23.2
				c-4.6-13.9-5.5-29-5.8-43.6c-0.1-12.8,3.5-39.3-5.4-49.9c-8.5-10.1-26.4-10.8-33.1-22.8c-5.9-10.5,4-18.8,11.6-25.7
				c6.7-6.1,16.2-11,21.3-18.6c5.2-7.9,4-12.4,3.8-22.6c-0.5-64.9-2.9-130-4.9-194.9c0.1-11.6,0.8-22.9,5.1-33.7
				c3.4-8.6,8.7-16.6,15.2-23.1c5.6-5.6,14.2-10.7,21.7-13.3c8.2-2.7,16.7-3.7,25.4-4.3c4.9,0,7.4,0,12.4-0.1
				c8.8-0.2,17.5,1.6,25.2,4.1c8.7,2.9,15.7,7.1,22.7,13.1c7,5.9,12.4,14.4,16.4,22.9c4.9,10.7,6.3,21.9,7.2,33.5
				c1.5,47.7,3,95.3,3.9,143.1c-17.4,0.2-34.9,0.3-52.3,0.6c-1-45.5-2.5-91-3.8-136.5c-0.8-10-1.2-20.7-7.1-29
				c-4.1-5.8-9.4-8.7-15.1-8.6c-1.9,0-2.8,0-4.7,0c-5.7,0.1-10.8,2.9-14.5,8.4c-5.6,8.4-5.6,20.2-5.2,30.3c2,62.3,4.1,124.6,4.7,187
				c0.1,10.1,1.5,15.1-3.9,22.9c-4.2,6-11.5,10.5-16.9,15.3c-7.3,6.4-20.5,15.6-17,27.1c3.4,11.8,24.1,15.7,32.3,23.8
				c9.8,9.9,6.8,28.9,7.3,42.3c-0.1,12.2,0.4,26.6,6,37.6c3.9,7.6,9,11.3,14.7,11.3c1.9,0,2.8,0,4.6,0c5.6,0,10.8-3.7,14.8-11.4
				c5.7-11,6.4-25.1,6.3-37.4c-0.3-9.4,0.5-21.5-1.4-31c-2.1-10.4-8.5-13.6-16.9-18.9c-19.5-12.2-27.9-18.8-10-38.1
				c17.6-0.2,35.3-0.3,52.9-0.5c-19.4,21.3-7.3,26.9,12.3,40.3c18.5,12.8,15.1,36,15.3,56.7c-0.4,14.7-1.3,30-6.3,43.4
				c-3.3,8.8-7.6,17.8-16,23.4c-6,4.1-15.3,5.9-22.4,6.2c-8.2,0.3-16.7,0.5-25.1,0.4C324.7,828.6,322.2,828.6,317.3,828.6z"/>
			<path class="st3" d="M585.5,561c-0.2,12.2-0.6,25-7.2,35.6c-4.3,7-10.9,12.9-19,15.6c8.1,2.1,14.7,8.4,19.2,14.4
				c6.9,8.9-11.3,25.1-16.9,30.4c-14.1,16-13.4,24,3.2,36.5c5.3,4,13.4,7.5,16.8,13.7c4.1,7.4,3.2,18.8,4.4,27
				c2.2,26.3-0.3,53,3.6,79.1c2,13,3.8,14.5,5.3,14.9c-17.3,0-34.7,0-51.9,0c-6.9-4.9-6.2-15.3-6.8-22.8
				c-1.9-23.4-0.3-47.9-2.1-71.6c-2.6-20.3-2.4-27.3-19.8-39.2c-15.3-10.4-20.4-18.2-8.7-34.1c1.8-1.8,30.8-31.4,9.9-29
				c-9.3,0.1-18.5,0.2-27.9,0.3c-9.6,10.6-42.5,31.7-35.2,49.6c5.5,13.2,26.2,14.4,32.3,27.2c6.3,13.2,3.4,37.3,3.5,51.2
				c0.1,22.7-0.1,45.4-0.2,68.1c-17.3,0-34.7,0-52.1,0c0.2-27.2,0.8-54.4,0.3-81.5c-0.2-8.6-0.2-18.2-1.7-26.8
				c-2.4-13.3-5.4-16.2-17-23.8c-12.3-8-24.7-15.2-15.3-30.4c6.6-10.7,19.4-17.1,27.5-26.7c7-8.3,5.6-15,5.6-25.6
				c-0.8-87.7-4.3-175.4-6.5-263.1c27.6-0.1,55.1-0.2,82.6-0.3c18-0.1,35.2,6.4,48.6,18.2c16,14,20.5,34,21.8,54.2
				C583.4,468.6,584.6,514.8,585.5,561z M515.3,594.2c17.2-0.1,18.3-23.3,18-35.5c-0.8-42.7-2-85.5-3.2-128.2
				c-0.7-9.9-1.2-20.2-7-28.4c-4.1-6-9.6-9-15.8-9c-8.3,0.1-16.5,0.1-24.8,0.1c1.9,67.1,4,134.2,4.9,201.3
				C496.8,594.4,506,594.3,515.3,594.2z"/>
			<path class="st3" d="M687.8,666.1c-10.8,14.8,9.5,25.3,18.3,33.1c9.5,8.4,10,16.8,11.3,28.8c3.7,32.9,1.9,66.9,1.9,100.1
				c-17.2,0-34.5,0-51.8,0c-0.1-33.3,1.8-67.2-1.8-100.3c-1.3-12.1-1.9-20.2-11.5-28.5c-8.8-7.5-29.8-18-19-32.8
				c5.6-15.2,23.6-23.7,23.3-41.5c-0.2-13.2-5.1-28.1-7.6-41c-4.4-23.7-9.1-47.4-13.7-71c-10.7-54.5-22-108.8-32.7-163.2
				c17.2-0.1,34.5-0.1,51.7-0.2c11.8,70.4,24.3,140.6,35.8,211.1c0.6,0,0.9,0,1.6,0c9.5-70.4,18-140.8,27.4-211.2
				c17.2-0.1,34.5-0.1,51.7-0.2c-8.8,54.2-17.2,108.6-25.8,162.8c-4,25.2-8.1,50.3-12.2,75.4c-2,12-2.3,27.8-6.7,39.3
				C721.5,643.6,700.2,654.1,687.8,666.1z"/>
			<path class="st3" d="M883.1,348.8c17.9-0.1,35.1,6.3,48.4,18c15.8,13.9,20.1,33.5,21.1,53.5c0.8,56.4,1.5,112.9,1.7,169.3
				c0.2,20.2-4.5,36.9-23.4,46.5c-17.3,8.9-37.2,12.4-56.6,12.6c-11.1,0.1-22.3,0.2-33.3,0.3c-13.1,12.6-24.6,23.9-10.3,40
				c10.6,12,19.2,14.1,21.6,31.2c5,35.5,3.2,72.1,3.4,107.9c-17.2,0-34.5,0-51.8,0c-0.1-27.1-0.1-54-0.5-81.1
				c-0.2-8.6-1.1-16.8-2.7-25.3c-2.4-13.6-4.2-16.7-14.4-26.1c-11.2-10.5-20.4-17.7-10.9-32.8c6.9-11,19-16.8,25.3-28.5
				c4.5-8.5,3.7-16,3.6-25.6c-0.3-86.5-2.6-173.2-3.8-259.8C827.9,348.9,855.5,348.9,883.1,348.8z M900.4,428.2
				c-0.6-9.8-0.9-19.9-6.6-28.1c-4-5.9-9.4-8.9-15.6-8.9c-8.3,0.1-16.4,0.1-24.7,0.1c1.2,73,2.6,145.8,2.8,218.8
				c9.2-0.1,18.4-0.2,27.6-0.3c16.9-0.1,18.4-22.9,18.2-35.1C901.9,525.9,901.2,477.1,900.4,428.2z"/>
			<path class="st3" d="M1133.7,389.6c-17.2,0.1-34.5,0.2-51.6,0.2c0.3,43.2,0.8,86.3,1,129.4c0.1,18.2,0.2,36.3,0.3,54.6
				c0.1,16.8,2.3,35.9-1,52.3c-3.8,19.2-28.2,27-30.1,46.1c-1.7,16.4,16.4,22,22.4,34.6c6.5,13.7,5.8,36.2,5.9,50.9
				c0.2,23.5,0.8,47.1,1,70.5c-17.2,0-34.5,0-51.8,0c-0.2-23.5-0.7-47.1-0.9-70.5c-0.1-14.6,0.8-37.4-5.9-51
				c-6.1-12.5-24.7-17.9-23.2-34.2c1.7-18.8,26.3-27,30.5-45.7c3.6-16.2,1.2-35.8,1.1-52.4c-0.1-18.2-0.2-36.4-0.3-54.6
				c-0.3-43.3-0.9-86.4-1.3-129.6c-17.2,0.1-34.5,0.2-51.6,0.2c-0.2-14-0.3-27.8-0.4-41.8c51.9-0.2,103.9-0.3,155.9-0.5
				C1133.6,361.8,1133.7,375.7,1133.7,389.6z"/>
			<path class="st3" d="M1228.8,828.6c-8.4,0.1-17-0.1-25.3-0.5c-7-0.3-16.1-2.3-22-6.5c-8.4-6.2-12.6-15.2-16.1-24.3
				c-5.1-13.1-6.2-28.1-6.7-42.3c-0.1-17.1-0.5-39.4-9.8-54c-7.8-12.3-21.9-18.2-15.3-34.6c3.8-9.7,12.8-14.1,18.7-21.8
				c4.9-6.4,8.5-12.6,9.6-21.3c2.4-16.9,0.1-35.5,0-52.6c-0.1-74.2-0.8-148.4-1.1-222.6c17.5-0.1,35-0.1,52.5-0.2
				c0.2,72.9,0.8,145.7,0.8,218.6c0,16.1,0.1,32.2,0,48.3c-0.1,8-0.9,19.2-5.5,26.3c-5.6,8.7-17,12.6-21.6,23
				c-6.2,14,0.5,21.7,9.6,32.3c11.8,13.7,13.4,33.8,14,51.4c0.2,11.2,1.1,24.4,6.6,34.6c4.2,7.7,9.2,11.4,14.9,11.4
				c1.9,0,2.8,0,4.6,0c5.6,0,10.6-3.9,14.4-11.5c4.9-10.2,5.8-23,5.6-34.4c-0.5-17.5-2.4-37.9-13.8-51.5c-9-10.7-15.3-18.7-9.1-32.6
				c4.6-10.4,16.2-14.4,21.8-23.1c4.3-6.9,4.8-18.6,4.8-26.4c0.1-16.1,0.1-32.2,0.1-48.3c-0.1-72.8-0.4-145.5-0.6-218.2
				c17.5-0.1,35-0.1,52.5-0.2c0.1,73.8,0.4,147.7,0.3,221.4c0,17.4,1.3,35.2-0.1,52.3c-0.8,9.2-2.7,14.6-7.7,21.7
				c-5.8,8.1-15.1,12.6-19.1,22.5c-6.8,16.5,5.9,22.6,13.3,35.6c8.3,14.7,9.4,36.9,9.6,53.9c0.3,14.1-1,29.2-5.3,42.1
				c-3.1,9.1-7,18.4-15.2,24.6c-5.8,4.4-15.2,6.3-22.2,6.6c-8.1,0.3-16.6,0.5-25,0.5C1236.1,828.6,1233.7,828.6,1228.8,828.6z"/>
			<path class="st3" d="M1447.8,551.2c0-43.6,0-87.1,0-130.7c-0.4-9.6-0.5-19.9-6.2-27.9c-3.9-5.5-9.1-8.3-14.8-8.3
				c-1.9,0-2.8,0-4.7,0c-5.7,0.1-10.9,2.7-14.8,8c-5.8,7.9-6.2,19.3-6.2,29.1c0,21.6,0.1,43.2,0.1,64.8c0,21.2,4.5,42.7,15.5,60.9
				c4.9,8.3,6.7,9.3,34.1,49.7c4.4,6.6,9,13.4,11.3,23.4c3.1,12.8-0.1,19.8,0.3,30.7c0.3,9.8,3.5,23.5,16.6,40.2
				c13.5,17.1,16.6,42,16.9,63.7c0.3,14-0.6,28.9-4.6,41.8c-2.9,9.2-6.7,18.7-15.1,24.8c-5.9,4.3-15.2,6.4-22.3,6.6
				c-8.4,0.3-17,0.5-25.6,0.5c-4.3,0-6.5,0-10.8,0c-8.5,0-17.2-0.1-25.5-0.5c-7.3-0.3-16.7-2.4-22.9-6.6c-8.9-6-13.5-15.2-17.2-24.6
				c-5.2-12.8-6.7-28-7.1-42c-0.2-17.3-1.6-41.9-11.5-56.4c-13.5-19.6-17.1-27.7,0.2-48.4c16.2-0.2,32.4-0.3,48.6-0.5
				c-15.3,18.4-16.8,27.8-2.8,46.5c9.7,13.1,12.9,35.5,13.4,51.9c0.2,11.1,2.3,24.4,7.6,34c3.1,5.4,10.4,11.7,17.3,11.4
				c1.6,0,2.4,0,3.8,0c6.7,0,12.4-3.9,16.2-11.5c5.1-9.9,6-22.6,5.8-33.8c1-12.1-4.4-43-12.8-51.6c-10.2-12-19.2-26.1-16.9-42.6
				c1.5-10.8,7.4-13.4,1.7-23.5c-4.8-8.5-11.1-16.4-17-24.1c-12.2-16-23.6-32.6-34-49.8c-11.3-18.8-14.9-40-15.5-61.7
				c-0.1-26.7-0.1-53.4-0.1-80.1c0.5-11.2,1.5-22.1,6.2-32.4c3.7-8.4,9.4-16.6,16.2-22.3c6.6-5.4,14.1-10.1,22.4-12.8
				c8.3-2.6,16.8-3.6,25.6-4.1c3.1,0,4.6,0,7.8,0c8.1-0.2,17.3,1.6,24.8,3.9c8.4,2.6,15.9,7.3,22.5,12.6
				c6.9,5.6,12.3,13.7,15.9,22.1c4.4,10.4,5.4,21.1,5.8,32.2c0,45.7,0,91.3,0,136.9C1479.8,550.8,1463.9,551,1447.8,551.2z"/>
		</g>
	</g>
</g>
</svg>
