<svg width="251" height="56" viewBox="0 0 251 56" fill="none" xmlns="http://www.w3.org/2000/svg">
<path d="M53.7637 24.6865C55.4437 24.9065 56.8237 25.5565 57.9037 26.6365C59.0037 27.6965 59.5537 29.1065 59.5537 30.8665C59.5537 32.8665 58.8637 34.4465 57.4837 35.6065C56.1237 36.7465 54.4637 37.3165 52.5037 37.3165C50.9437 37.3165 49.5537 36.9565 48.3337 36.2365C47.1137 35.5165 46.2537 34.4865 45.7537 33.1465L47.4937 32.1265C47.8337 33.1665 48.4437 33.9565 49.3237 34.4965C50.2037 35.0165 51.2637 35.2765 52.5037 35.2765C53.9437 35.2765 55.1237 34.8965 56.0437 34.1365C56.9837 33.3565 57.4537 32.2665 57.4537 30.8665C57.4537 29.4665 56.9837 28.3865 56.0437 27.6265C55.1237 26.8465 53.9437 26.4565 52.5037 26.4565V26.4265L52.4737 26.4565H51.9037L51.0037 25.0765L56.2237 17.9365H46.3537V15.9565H58.6537V17.9365L53.7637 24.6865ZM71.2619 15.9565C74.1219 15.9565 76.4819 16.9765 78.3419 19.0165C80.2219 21.0365 81.1619 23.5165 81.1619 26.4565C81.1619 29.3965 80.2219 31.8865 78.3419 33.9265C76.4819 35.9465 74.1219 36.9565 71.2619 36.9565H63.1619V15.9565H71.2619ZM71.2619 34.9765C73.5619 34.9765 75.4419 34.1565 76.9019 32.5165C78.3819 30.8765 79.1219 28.8565 79.1219 26.4565C79.1219 24.0565 78.3819 22.0365 76.9019 20.3965C75.4419 18.7565 73.5619 17.9365 71.2619 17.9365H65.2619V34.9765H71.2619ZM102.064 37.3165C98.8837 37.3165 96.2537 36.2665 94.1737 34.1665C92.0937 32.0665 91.0537 29.4965 91.0537 26.4565C91.0537 23.4165 92.0937 20.8465 94.1737 18.7465C96.2537 16.6465 98.8837 15.5965 102.064 15.5965C104.004 15.5965 105.784 16.0665 107.404 17.0065C109.024 17.9265 110.274 19.1765 111.154 20.7565L109.294 21.8365C108.634 20.5565 107.654 19.5365 106.354 18.7765C105.054 18.0165 103.624 17.6365 102.064 17.6365C99.4437 17.6365 97.3037 18.4865 95.6437 20.1865C93.9837 21.8865 93.1537 23.9765 93.1537 26.4565C93.1537 28.9365 93.9837 31.0265 95.6437 32.7265C97.3037 34.4265 99.4437 35.2765 102.064 35.2765C103.624 35.2765 105.054 34.8965 106.354 34.1365C107.654 33.3765 108.634 32.3565 109.294 31.0765L111.154 32.1265C110.294 33.7065 109.044 34.9665 107.404 35.9065C105.784 36.8465 104.004 37.3165 102.064 37.3165ZM116.707 34.9765H126.307V36.9565H114.607V15.9565H116.707V34.9765ZM145.19 34.1665C143.09 36.2665 140.52 37.3165 137.48 37.3165C134.44 37.3165 131.87 36.2665 129.77 34.1665C127.67 32.0465 126.62 29.4765 126.62 26.4565C126.62 23.4365 127.67 20.8765 129.77 18.7765C131.87 16.6565 134.44 15.5965 137.48 15.5965C140.52 15.5965 143.09 16.6565 145.19 18.7765C147.29 20.8765 148.34 23.4365 148.34 26.4565C148.34 29.4765 147.29 32.0465 145.19 34.1665ZM131.24 32.7265C132.92 34.4265 135 35.2765 137.48 35.2765C139.96 35.2765 142.04 34.4265 143.72 32.7265C145.4 31.0065 146.24 28.9165 146.24 26.4565C146.24 23.9965 145.4 21.9165 143.72 20.2165C142.04 18.4965 139.96 17.6365 137.48 17.6365C135 17.6365 132.92 18.4965 131.24 20.2165C129.56 21.9165 128.72 23.9965 128.72 26.4565C128.72 28.9165 129.56 31.0065 131.24 32.7265ZM163.93 15.9565V17.9365H157.48V36.9565H155.38V17.9365H148.93V15.9565H163.93ZM180.431 15.9565H182.531V36.9565H180.431V27.1465H169.031V36.9565H166.931V15.9565H169.031V25.1665H180.431V15.9565ZM189.422 34.9765H199.622V36.9565H187.322V15.9565H199.472V17.9365H189.422V25.3765H198.722V27.3565H189.422V34.9765ZM209.83 37.3165C207.91 37.3165 206.26 36.8665 204.88 35.9665C203.52 35.0465 202.57 33.7865 202.03 32.1865L203.83 31.1365C204.21 32.4365 204.91 33.4565 205.93 34.1965C206.95 34.9165 208.26 35.2765 209.86 35.2765C211.42 35.2765 212.63 34.9365 213.49 34.2565C214.37 33.5565 214.81 32.6365 214.81 31.4965C214.81 30.3965 214.41 29.5665 213.61 29.0065C212.81 28.4465 211.49 27.8665 209.65 27.2665C207.47 26.5465 206.03 25.9665 205.33 25.5265C203.73 24.5665 202.93 23.1765 202.93 21.3565C202.93 19.5765 203.55 18.1765 204.79 17.1565C206.03 16.1165 207.56 15.5965 209.38 15.5965C211.02 15.5965 212.44 16.0265 213.64 16.8865C214.84 17.7265 215.73 18.8065 216.31 20.1265L214.54 21.1165C213.58 18.7965 211.86 17.6365 209.38 17.6365C208.08 17.6365 207.03 17.9565 206.23 18.5965C205.43 19.2365 205.03 20.1265 205.03 21.2665C205.03 22.3065 205.39 23.0865 206.11 23.6065C206.83 24.1265 208.02 24.6565 209.68 25.1965C210.44 25.4565 210.98 25.6465 211.3 25.7665C211.64 25.8665 212.12 26.0465 212.74 26.3065C213.38 26.5465 213.85 26.7665 214.15 26.9665C214.45 27.1465 214.81 27.4065 215.23 27.7465C215.67 28.0665 215.98 28.3965 216.16 28.7365C216.36 29.0565 216.53 29.4565 216.67 29.9365C216.83 30.3965 216.91 30.8965 216.91 31.4365C216.91 33.2165 216.26 34.6465 214.96 35.7265C213.66 36.7865 211.95 37.3165 209.83 37.3165Z" fill="#9ECC00"/>
<rect x="1.04431" y="1.87402" width="248.267" height="52.6617" rx="9" stroke="#9ECC00" stroke-width="2"/>
</svg>
