<svg width="267" height="56" viewBox="0 0 267 56" fill="none" xmlns="http://www.w3.org/2000/svg">
<path d="M58.3179 26.8512C59.3379 27.2912 60.1479 27.9612 60.7479 28.8612C61.3679 29.7412 61.6779 30.7512 61.6779 31.8912C61.6779 33.5112 61.1079 34.8912 59.9679 36.0312C58.8279 37.1712 57.4479 37.7412 55.8279 37.7412H46.6779V16.7412H55.1379C56.6979 16.7412 58.0279 17.3012 59.1279 18.4212C60.2279 19.5212 60.7779 20.8412 60.7779 22.3812C60.7779 24.3412 59.9579 25.8312 58.3179 26.8512ZM55.1379 18.7212H48.7779V26.0412H55.1379C56.1179 26.0412 56.9479 25.6912 57.6279 24.9912C58.3279 24.2712 58.6779 23.4012 58.6779 22.3812C58.6779 21.3812 58.3279 20.5212 57.6279 19.8012C56.9479 19.0812 56.1179 18.7212 55.1379 18.7212ZM55.8279 35.7612C56.8679 35.7612 57.7479 35.3912 58.4679 34.6512C59.2079 33.8912 59.5779 32.9712 59.5779 31.8912C59.5779 30.8312 59.2079 29.9212 58.4679 29.1612C57.7479 28.4012 56.8679 28.0212 55.8279 28.0212H48.7779V35.7612H55.8279ZM78.1814 37.7412L73.2614 29.3412H67.3814V37.7412H65.2814V16.7412L73.6814 16.7412C75.4214 16.7412 76.9014 17.3612 78.1214 18.6012C79.3614 19.8212 79.9814 21.3012 79.9814 23.0412C79.9814 24.4612 79.5514 25.7312 78.6914 26.8512C77.8514 27.9512 76.7714 28.6912 75.4514 29.0712L80.5814 37.7412L78.1814 37.7412ZM67.3814 18.7212V27.3612H73.6814C74.8414 27.3612 75.8314 26.9412 76.6514 26.1012C77.4714 25.2412 77.8814 24.2212 77.8814 23.0412C77.8814 21.8412 77.4714 20.8212 76.6514 19.9812C75.8314 19.1412 74.8414 18.7212 73.6814 18.7212L67.3814 18.7212ZM97.572 37.7412L95.622 32.5812H85.662L83.712 37.7412H81.492L89.562 16.7412L91.722 16.7412L99.792 37.7412H97.572ZM86.412 30.6012H94.872L90.642 19.3512L86.412 30.6012ZM115.988 16.7412H118.088V37.7412H116.288L104.588 20.6412V37.7412H102.488V16.7412H104.288L115.988 33.8412V16.7412ZM130.979 16.7412C133.839 16.7412 136.199 17.7612 138.059 19.8012C139.939 21.8212 140.879 24.3012 140.879 27.2412C140.879 30.1812 139.939 32.6712 138.059 34.7112C136.199 36.7312 133.839 37.7412 130.979 37.7412H122.879V16.7412H130.979ZM130.979 35.7612C133.279 35.7612 135.159 34.9412 136.619 33.3012C138.099 31.6612 138.839 29.6412 138.839 27.2412C138.839 24.8412 138.099 22.8212 136.619 21.1812C135.159 19.5412 133.279 18.7212 130.979 18.7212H124.979V35.7612H130.979ZM158.571 38.1012C156.651 38.1012 155.001 37.6512 153.621 36.7512C152.261 35.8312 151.311 34.5712 150.771 32.9712L152.571 31.9212C152.951 33.2212 153.651 34.2412 154.671 34.9812C155.691 35.7012 157.001 36.0612 158.601 36.0612C160.161 36.0612 161.371 35.7212 162.231 35.0412C163.111 34.3412 163.551 33.4212 163.551 32.2812C163.551 31.1812 163.151 30.3512 162.351 29.7912C161.551 29.2312 160.231 28.6512 158.391 28.0512C156.211 27.3312 154.771 26.7512 154.071 26.3112C152.471 25.3512 151.671 23.9612 151.671 22.1412C151.671 20.3612 152.291 18.9612 153.531 17.9412C154.771 16.9012 156.301 16.3812 158.121 16.3812C159.761 16.3812 161.181 16.8112 162.381 17.6712C163.581 18.5112 164.471 19.5912 165.051 20.9112L163.281 21.9012C162.321 19.5812 160.601 18.4212 158.121 18.4212C156.821 18.4212 155.771 18.7412 154.971 19.3812C154.171 20.0212 153.771 20.9112 153.771 22.0512C153.771 23.0912 154.131 23.8712 154.851 24.3912C155.571 24.9112 156.761 25.4412 158.421 25.9812C159.181 26.2412 159.721 26.4312 160.041 26.5512C160.381 26.6512 160.861 26.8312 161.481 27.0912C162.121 27.3312 162.591 27.5512 162.891 27.7512C163.191 27.9312 163.551 28.1912 163.971 28.5312C164.411 28.8512 164.721 29.1812 164.901 29.5212C165.101 29.8412 165.271 30.2412 165.411 30.7212C165.571 31.1812 165.651 31.6812 165.651 32.2212C165.651 34.0012 165.001 35.4312 163.701 36.5112C162.401 37.5712 160.691 38.1012 158.571 38.1012ZM181.694 16.7412V18.7212L175.244 18.7212V37.7412H173.144V18.7212H166.694V16.7412L181.694 16.7412ZM199.845 16.7412L192.255 29.1312V37.7412H190.155V29.0712L182.595 16.7412H184.965L191.235 27.0312L197.475 16.7412H199.845ZM204.637 35.7612H214.237V37.7412H202.537V16.7412H204.637V35.7612ZM219.344 35.7612H229.544V37.7412H217.244V16.7412H229.394V18.7212H219.344V26.1612H228.644V28.1412H219.344V35.7612Z" fill="#9ECC00"/>
<rect x="1.54272" y="1.48535" width="263.95" height="52.6617" rx="9" stroke="#9ECC00" stroke-width="2"/>
</svg>
