<svg width="303" height="56" viewBox="0 0 303 56" fill="none" xmlns="http://www.w3.org/2000/svg">
<path d="M63.0885 36.6037C59.9085 36.6037 57.2785 35.5537 55.1985 33.4537C53.1185 31.3537 52.0785 28.7837 52.0785 25.7437C52.0785 22.7037 53.1185 20.1337 55.1985 18.0337C57.2785 15.9337 59.9085 14.8837 63.0885 14.8837C65.0285 14.8837 66.8085 15.3537 68.4285 16.2937C70.0485 17.2137 71.2985 18.4637 72.1785 20.0437L70.3185 21.1237C69.6585 19.8437 68.6785 18.8237 67.3785 18.0637C66.0785 17.3037 64.6485 16.9237 63.0885 16.9237C60.4685 16.9237 58.3285 17.7737 56.6685 19.4737C55.0085 21.1737 54.1785 23.2637 54.1785 25.7437C54.1785 28.2237 55.0085 30.3137 56.6685 32.0137C58.3285 33.7137 60.4685 34.5637 63.0885 34.5637C64.6485 34.5637 66.0785 34.1837 67.3785 33.4237C68.6785 32.6637 69.6585 31.6437 70.3185 30.3637L72.1785 31.4137C71.3185 32.9937 70.0685 34.2537 68.4285 35.1937C66.8085 36.1337 65.0285 36.6037 63.0885 36.6037ZM93.002 33.4537C90.902 35.5537 88.332 36.6037 85.292 36.6037C82.252 36.6037 79.682 35.5537 77.582 33.4537C75.482 31.3337 74.432 28.7637 74.432 25.7437C74.432 22.7237 75.482 20.1637 77.582 18.0637C79.682 15.9437 82.252 14.8837 85.292 14.8837C88.332 14.8837 90.902 15.9437 93.002 18.0637C95.102 20.1637 96.152 22.7237 96.152 25.7437C96.152 28.7637 95.102 31.3337 93.002 33.4537ZM79.052 32.0137C80.732 33.7137 82.812 34.5637 85.292 34.5637C87.772 34.5637 89.852 33.7137 91.532 32.0137C93.212 30.2937 94.052 28.2037 94.052 25.7437C94.052 23.2837 93.212 21.2037 91.532 19.5037C89.852 17.7837 87.772 16.9237 85.292 16.9237C82.812 16.9237 80.732 17.7837 79.052 19.5037C77.372 21.2037 76.532 23.2837 76.532 25.7437C76.532 28.2037 77.372 30.2937 79.052 32.0137ZM107.243 15.2437C109.123 15.2437 110.693 15.8737 111.953 17.1337C113.213 18.3937 113.843 19.9637 113.843 21.8437C113.843 23.7237 113.213 25.2937 111.953 26.5537C110.693 27.8137 109.123 28.4437 107.243 28.4437H101.843V36.2437H99.7434V15.2437H107.243ZM107.243 26.4637C108.543 26.4637 109.613 26.0337 110.453 25.1737C111.313 24.2937 111.743 23.1837 111.743 21.8437C111.743 20.5037 111.313 19.4037 110.453 18.5437C109.613 17.6637 108.543 17.2237 107.243 17.2237H101.843V26.4637H107.243ZM132.003 15.2437L124.413 27.6337V36.2437H122.313V27.5737L114.753 15.2437H117.123L123.393 25.5337L129.633 15.2437H132.003ZM139.285 36.2437L133.195 15.2437H135.415L140.605 33.3937L146.065 15.2437H148.525L153.985 33.3937L159.175 15.2437H161.395L155.305 36.2437H152.785L147.295 18.0037L141.805 36.2437H139.285ZM177.595 36.2437L172.675 27.8437H166.795V36.2437H164.695V15.2437H173.095C174.835 15.2437 176.315 15.8637 177.535 17.1037C178.775 18.3237 179.395 19.8037 179.395 21.5437C179.395 22.9637 178.965 24.2337 178.105 25.3537C177.265 26.4537 176.185 27.1937 174.865 27.5737L179.995 36.2437H177.595ZM166.795 17.2237V25.8637H173.095C174.255 25.8637 175.245 25.4437 176.065 24.6037C176.885 23.7437 177.295 22.7237 177.295 21.5437C177.295 20.3437 176.885 19.3237 176.065 18.4837C175.245 17.6437 174.255 17.2237 173.095 17.2237H166.795ZM183.005 15.2437H185.105V36.2437H183.005V15.2437ZM203.119 15.2437V17.2237H196.669V36.2437H194.569V17.2237H188.119V15.2437H203.119ZM206.12 15.2437H208.22V36.2437H206.12V15.2437ZM226.534 15.2437H228.634V36.2437H226.834L215.134 19.1437V36.2437H213.034V15.2437H214.834L226.534 32.3437V15.2437ZM253.495 26.2537V27.3337C253.495 29.9337 252.565 32.1337 250.705 33.9337C248.845 35.7137 246.355 36.6037 243.235 36.6037C240.055 36.6037 237.425 35.5537 235.345 33.4537C233.265 31.3537 232.225 28.7837 232.225 25.7437C232.225 22.7037 233.265 20.1337 235.345 18.0337C237.425 15.9337 240.055 14.8837 243.235 14.8837C245.175 14.8837 246.955 15.3537 248.575 16.2937C250.195 17.2337 251.445 18.4837 252.325 20.0437L250.465 21.1237C249.805 19.8437 248.825 18.8237 247.525 18.0637C246.225 17.3037 244.795 16.9237 243.235 16.9237C240.615 16.9237 238.475 17.7737 236.815 19.4737C235.155 21.1737 234.325 23.2637 234.325 25.7437C234.325 28.2237 235.155 30.3137 236.815 32.0137C238.475 33.7137 240.615 34.5637 243.235 34.5637C245.595 34.5637 247.485 33.9737 248.905 32.7937C250.325 31.5937 251.135 30.0737 251.335 28.2337H242.995V26.2537H253.495Z" fill="#9ECC00"/>
<rect x="1.72119" y="1.3457" width="299.76" height="52.6617" rx="9" stroke="#9ECC00" stroke-width="2"/>
</svg>
