<svg width="295" height="55" viewBox="0 0 295 55" fill="none" xmlns="http://www.w3.org/2000/svg">
<rect x="1.23022" y="1.2688" width="292.44" height="52.6617" rx="9" fill="#9ECC00" stroke="#9ECC00" stroke-width="2"/>
<path d="M53.7782 16.6372V37.6372H51.6782V19.8172L44.3282 32.1172H44.0282L36.6782 19.8172V37.6372H34.5782V16.6372H37.1882L44.1782 28.3372L51.1682 16.6372H53.7782ZM60.6723 35.6572H70.8723V37.6372H58.5723V16.6372H70.7223V18.6172H60.6723V26.0572H69.9723V28.0372H60.6723V35.6572ZM82.5805 16.6372C85.4405 16.6372 87.8005 17.6572 89.6605 19.6972C91.5405 21.7172 92.4805 24.1972 92.4805 27.1372C92.4805 30.0772 91.5405 32.5672 89.6605 34.6072C87.8005 36.6272 85.4405 37.6372 82.5805 37.6372H74.4805V16.6372H82.5805ZM82.5805 35.6572C84.8805 35.6572 86.7605 34.8372 88.2205 33.1972C89.7005 31.5572 90.4405 29.5372 90.4405 27.1372C90.4405 24.7372 89.7005 22.7172 88.2205 21.0772C86.7605 19.4372 84.8805 18.6172 82.5805 18.6172H76.5805V35.6572H82.5805ZM96.0723 16.6372H98.1723V37.6372H96.0723V16.6372ZM116.966 37.6372L115.016 32.4772H105.056L103.106 37.6372H100.886L108.956 16.6372H111.116L119.186 37.6372H116.966ZM105.806 30.4972H114.266L110.036 19.2472L105.806 30.4972ZM149.453 27.6472V28.7272C149.453 31.3272 148.523 33.5272 146.663 35.3272C144.803 37.1072 142.313 37.9972 139.193 37.9972C136.013 37.9972 133.383 36.9472 131.303 34.8472C129.223 32.7472 128.183 30.1772 128.183 27.1372C128.183 24.0972 129.223 21.5272 131.303 19.4272C133.383 17.3272 136.013 16.2772 139.193 16.2772C141.133 16.2772 142.913 16.7472 144.533 17.6872C146.153 18.6272 147.403 19.8772 148.283 21.4372L146.423 22.5172C145.763 21.2372 144.783 20.2172 143.483 19.4572C142.183 18.6972 140.753 18.3172 139.193 18.3172C136.573 18.3172 134.433 19.1672 132.773 20.8672C131.113 22.5672 130.283 24.6572 130.283 27.1372C130.283 29.6172 131.113 31.7072 132.773 33.4072C134.433 35.1072 136.573 35.9572 139.193 35.9572C141.553 35.9572 143.443 35.3672 144.863 34.1872C146.283 32.9872 147.093 31.4672 147.293 29.6272H138.953V27.6472H149.453ZM165.955 37.6372L161.035 29.2372H155.155V37.6372H153.055V16.6372H161.455C163.195 16.6372 164.675 17.2572 165.895 18.4972C167.135 19.7172 167.755 21.1972 167.755 22.9372C167.755 24.3572 167.325 25.6272 166.465 26.7472C165.625 27.8472 164.545 28.5872 163.225 28.9672L168.355 37.6372H165.955ZM155.155 18.6172V27.2572H161.455C162.615 27.2572 163.605 26.8372 164.425 25.9972C165.245 25.1372 165.655 24.1172 165.655 22.9372C165.655 21.7372 165.245 20.7172 164.425 19.8772C163.605 19.0372 162.615 18.6172 161.455 18.6172H155.155ZM185.345 37.6372L183.395 32.4772H173.435L171.485 37.6372H169.265L177.335 16.6372H179.495L187.565 37.6372H185.345ZM174.185 30.4972H182.645L178.415 19.2472L174.185 30.4972ZM197.762 16.6372C199.642 16.6372 201.212 17.2672 202.472 18.5272C203.732 19.7872 204.362 21.3572 204.362 23.2372C204.362 25.1172 203.732 26.6872 202.472 27.9472C201.212 29.2072 199.642 29.8372 197.762 29.8372H192.362V37.6372H190.262V16.6372H197.762ZM197.762 27.8572C199.062 27.8572 200.132 27.4272 200.972 26.5672C201.832 25.6872 202.262 24.5772 202.262 23.2372C202.262 21.8972 201.832 20.7972 200.972 19.9372C200.132 19.0572 199.062 18.6172 197.762 18.6172H192.362V27.8572H197.762ZM221.457 16.6372H223.557V37.6372H221.457V27.8272H210.057V37.6372H207.957V16.6372H210.057V25.8472H221.457V16.6372ZM228.348 16.6372H230.448V37.6372H228.348V16.6372ZM245.072 37.9972C241.892 37.9972 239.262 36.9472 237.182 34.8472C235.102 32.7472 234.062 30.1772 234.062 27.1372C234.062 24.0972 235.102 21.5272 237.182 19.4272C239.262 17.3272 241.892 16.2772 245.072 16.2772C247.012 16.2772 248.792 16.7472 250.412 17.6872C252.032 18.6072 253.282 19.8572 254.162 21.4372L252.302 22.5172C251.642 21.2372 250.662 20.2172 249.362 19.4572C248.062 18.6972 246.632 18.3172 245.072 18.3172C242.452 18.3172 240.312 19.1672 238.652 20.8672C236.992 22.5672 236.162 24.6572 236.162 27.1372C236.162 29.6172 236.992 31.7072 238.652 33.4072C240.312 35.1072 242.452 35.9572 245.072 35.9572C246.632 35.9572 248.062 35.5772 249.362 34.8172C250.662 34.0572 251.642 33.0372 252.302 31.7572L254.162 32.8072C253.302 34.3872 252.052 35.6472 250.412 36.5872C248.792 37.5272 247.012 37.9972 245.072 37.9972ZM264.215 37.9972C262.295 37.9972 260.645 37.5472 259.265 36.6472C257.905 35.7272 256.955 34.4672 256.415 32.8672L258.215 31.8172C258.595 33.1172 259.295 34.1372 260.315 34.8772C261.335 35.5972 262.645 35.9572 264.245 35.9572C265.805 35.9572 267.015 35.6172 267.875 34.9372C268.755 34.2372 269.195 33.3172 269.195 32.1772C269.195 31.0772 268.795 30.2472 267.995 29.6872C267.195 29.1272 265.875 28.5472 264.035 27.9472C261.855 27.2272 260.415 26.6472 259.715 26.2072C258.115 25.2472 257.315 23.8572 257.315 22.0372C257.315 20.2572 257.935 18.8572 259.175 17.8372C260.415 16.7972 261.945 16.2772 263.765 16.2772C265.405 16.2772 266.825 16.7072 268.025 17.5672C269.225 18.4072 270.115 19.4872 270.695 20.8072L268.925 21.7972C267.965 19.4772 266.245 18.3172 263.765 18.3172C262.465 18.3172 261.415 18.6372 260.615 19.2772C259.815 19.9172 259.415 20.8072 259.415 21.9472C259.415 22.9872 259.775 23.7672 260.495 24.2872C261.215 24.8072 262.405 25.3372 264.065 25.8772C264.825 26.1372 265.365 26.3272 265.685 26.4472C266.025 26.5472 266.505 26.7272 267.125 26.9872C267.765 27.2272 268.235 27.4472 268.535 27.6472C268.835 27.8272 269.195 28.0872 269.615 28.4272C270.055 28.7472 270.365 29.0772 270.545 29.4172C270.745 29.7372 270.915 30.1372 271.055 30.6172C271.215 31.0772 271.295 31.5772 271.295 32.1172C271.295 33.8972 270.645 35.3272 269.345 36.4072C268.045 37.4672 266.335 37.9972 264.215 37.9972Z" fill="black"/>
</svg>
