<svg width="112" height="55" viewBox="0 0 112 55" fill="none" xmlns="http://www.w3.org/2000/svg">
<path d="M47.5081 15.9983L49.6081 16.0021L49.5997 37.0021L47.7997 36.9988L36.1065 19.8777L36.0997 36.9777L33.9997 36.974L34.0081 15.974L35.8081 15.9772L47.5012 33.0983L47.5081 15.9983ZM66.2479 18.012L56.4979 17.9945L56.4948 25.7345L65.7948 25.7512L65.794 27.7312L56.494 27.7145L56.4903 37.0145L54.3903 37.0107L54.3987 16.0107L66.2487 16.032L66.2479 18.012ZM83.0381 16.0623L83.0373 18.0423L76.5873 18.0307L76.5797 37.0507L74.4797 37.0469L74.4873 18.0269L68.0373 18.0153L68.0381 16.0353L83.0381 16.0623Z" fill="#9ECC00"/>
<rect x="1.23157" y="1.27246" width="109.576" height="52.6617" rx="9" stroke="#9ECC00" stroke-width="2"/>
</svg>
