<svg width="124" height="56" viewBox="0 0 124 56" fill="none" xmlns="http://www.w3.org/2000/svg">
<rect x="1.99097" y="1.37109" width="120.063" height="52.6617" rx="9" fill="#9ECC00" stroke="#9ECC00" stroke-width="2"/>
<path d="M42.8761 37.497C40.9561 37.497 39.3061 37.047 37.9261 36.147C36.5661 35.227 35.6161 33.967 35.0761 32.367L36.8761 31.317C37.2561 32.617 37.9561 33.637 38.9761 34.377C39.9961 35.097 41.3061 35.457 42.9061 35.457C44.4661 35.457 45.6761 35.117 46.5361 34.437C47.4161 33.737 47.8561 32.817 47.8561 31.677C47.8561 30.577 47.4561 29.747 46.6561 29.187C45.8561 28.627 44.5361 28.047 42.6961 27.447C40.5161 26.727 39.0761 26.147 38.3761 25.707C36.7761 24.747 35.9761 23.357 35.9761 21.537C35.9761 19.757 36.5961 18.357 37.8361 17.337C39.0761 16.297 40.6061 15.777 42.4261 15.777C44.0661 15.777 45.4861 16.207 46.6861 17.067C47.8861 17.907 48.7761 18.987 49.3561 20.307L47.5861 21.297C46.6261 18.977 44.9061 17.817 42.4261 17.817C41.1261 17.817 40.0761 18.137 39.2761 18.777C38.4761 19.417 38.0761 20.307 38.0761 21.447C38.0761 22.487 38.4361 23.267 39.1561 23.787C39.8761 24.307 41.0661 24.837 42.7261 25.377C43.4861 25.637 44.0261 25.827 44.3461 25.947C44.6861 26.047 45.1661 26.227 45.7861 26.487C46.4261 26.727 46.8961 26.947 47.1961 27.147C47.4961 27.327 47.8561 27.587 48.2761 27.927C48.7161 28.247 49.0261 28.577 49.2061 28.917C49.4061 29.237 49.5761 29.637 49.7161 30.117C49.8761 30.577 49.9561 31.077 49.9561 31.617C49.9561 33.397 49.3061 34.827 48.0061 35.907C46.7061 36.967 44.9961 37.497 42.8761 37.497ZM53.4148 16.137H55.5148V37.137H53.4148V16.137ZM73.5289 16.137V18.117H67.0789V37.137H64.9789V18.117H58.5289V16.137H73.5289ZM78.63 35.157H88.83V37.137H76.53V16.137H88.68V18.117H78.63V25.557H87.93V27.537H78.63V35.157Z" fill="black"/>
</svg>
